<svg xmlns="http://www.w3.org/2000/svg" viewBox="0 0 32 27" width="32" height="27">
	<defs>
		<filter id="flt1"> <feColorMatrix in="SourceGraphic" type="matrix" values="0 0 0 0 0.267   0 0 0 0 0.267   0 0 0 0 0.267   0 0 0 1 0" /> </filter>
	</defs>
	<style>
		tspan { white-space:pre }
		.shp0 { filter: url(#flt1);fill: #444444 } 
	</style>
	<path id="archive" class="shp0" d="M7.34,0.65l5.8,1.55c0.53,0.14 0.85,0.69 0.71,1.22l-5.95,22.22c-0.14,0.53 -0.69,0.85 -1.22,0.71l-5.8,-1.55c-0.53,-0.14 -0.85,-0.69 -0.71,-1.22l5.95,-22.22c0.14,-0.53 0.69,-0.85 1.22,-0.71zM16,1h6c0.55,0 1,0.45 1,1v23c0,0.55 -0.45,1 -1,1h-6c-0.55,0 -1,-0.45 -1,-1v-23c0,-0.55 0.45,-1 1,-1zM25,1h6c0.55,0 1,0.45 1,1v23c0,0.55 -0.45,1 -1,1h-6c-0.55,0 -1,-0.45 -1,-1v-23c0,-0.55 0.45,-1 1,-1zM3.2,16.1l5.8,1.55l3.11,-11.59l-5.8,-1.55zM16,17h6v-12h-6zM25,17h6v-12h-6zM2.05,20.39c-0.43,1.6 0.52,3.25 2.12,3.67c1.6,0.43 3.25,-0.52 3.67,-2.12c0.43,-1.6 -0.52,-3.25 -2.12,-3.67c-1.6,-0.43 -3.25,0.52 -3.67,2.12zM16,21.44c0,1.66 1.34,3 3,3c1.66,0 3,-1.34 3,-3c0,-1.66 -1.34,-3 -3,-3c-1.66,0 -3,1.34 -3,3zM25,21.5c0,1.66 1.34,3 3,3c1.66,0 3,-1.34 3,-3c0,-1.66 -1.34,-3 -3,-3c-1.66,0 -3,1.34 -3,3zM28,20c0.83,0 1.5,0.67 1.5,1.5c0,0.83 -0.67,1.5 -1.5,1.5c-0.83,0 -1.5,-0.67 -1.5,-1.5c0,-0.83 0.67,-1.5 1.5,-1.5zM19,20c0.83,0 1.5,0.67 1.5,1.5c0,0.83 -0.67,1.5 -1.5,1.5c-0.83,0 -1.5,-0.67 -1.5,-1.5c0,-0.83 0.67,-1.5 1.5,-1.5zM5.32,19.78c0.8,0.21 1.28,1.04 1.06,1.84c-0.21,0.8 -1.04,1.28 -1.84,1.06c-0.8,-0.21 -1.27,-1.04 -1.06,-1.84c0.21,-0.8 1.04,-1.28 1.84,-1.06zM26,6h4v1h-4zM26,8h4v1h-4zM26,10h4v1h-4zM17,6h4v1h-4zM17,8h4v1h-4zM17,10h4v1h-4zM7.01,5.74l3.86,1.04l-0.26,0.97l-3.86,-1.04zM6.49,7.67l3.86,1.04l-0.26,0.97l-3.86,-1.04zM5.97,9.6l3.86,1.04l-0.26,0.97l-3.86,-1.04z" />
</svg>