<svg xmlns="http://www.w3.org/2000/svg" viewBox="0 0 29 29" width="29" height="29">
	<defs>
		<filter id="flt1"> <feColorMatrix in="SourceGraphic" type="matrix" values="0 0 0 0 0.267   0 0 0 0 0.267   0 0 0 0 0.267   0 0 0 1 0" /> </filter>
	</defs>
	<style>
		tspan { white-space:pre }
		.shp0 { filter: url(#flt1);fill: #444444 } 
	</style>
	<path id="injection" class="shp0" d="M22.97 7.38C23.35 7.76 23.35 8.37 22.97 8.75C22.6 9.12 22.29 9.43 22.29 9.43L22.97 10.11C23.73 10.87 23.73 12.09 22.97 12.85L12.72 23.1C11.96 23.86 10.74 23.86 9.98 23.1L9.3 22.42L6.57 25.15L7.93 26.52C8.31 26.9 8.31 27.51 7.93 27.89C7.56 28.27 6.94 28.27 6.57 27.89L1.1 22.42C0.72 22.04 0.72 21.43 1.1 21.05C1.47 20.67 2.09 20.67 2.46 21.05L3.83 22.42L6.57 19.68L5.88 19C5.13 18.25 5.13 17.02 5.88 16.27L16.14 6.01C16.89 5.26 18.12 5.26 18.87 6.01L19.56 6.69C19.56 6.69 19.86 6.39 20.24 6.01C20.62 5.63 21.23 5.63 21.61 6.01L21.95 6.35L27.42 0.88L27.42 2.25L22.63 7.04L22.97 7.38ZM18.19 6.69C17.81 6.32 17.2 6.32 16.82 6.69L14.77 8.75L16.14 10.11L15.45 10.8L14.09 9.43L12.03 11.48L13.4 12.85L12.72 13.53L11.35 12.16L10.67 12.85L13.4 15.58L12.72 16.27L9.98 13.53L7.93 15.58L10.67 18.32L9.98 19L7.25 16.27L6.57 16.95C6.19 17.33 6.19 17.94 6.57 18.32L10.67 22.42C11.05 22.8 11.66 22.8 12.03 22.42L22.29 12.16C22.67 11.79 22.67 11.17 22.29 10.8L18.19 6.69ZM15.45 8.06L16.14 7.38L18.87 10.11L18.19 10.8L15.45 8.06ZM15.45 13.53L12.72 10.8L13.4 10.11L16.14 12.85L15.45 13.53ZM8.62 14.9L9.3 14.22L10.67 15.58L9.98 16.27L8.62 14.9ZM28.76 7.56C28.76 8.28 28.17 8.87 27.44 8.87C26.72 8.87 26.13 8.28 26.13 7.56C26.13 6.83 27.44 4.85 27.44 4.85C27.44 4.85 28.76 6.83 28.76 7.56Z" />
</svg>