<svg xmlns="http://www.w3.org/2000/svg" viewBox="0 0 25 24" width="25" height="24">
	<defs>
		<filter id="flt1"> <feColorMatrix in="SourceGraphic" type="matrix" values="0 0 0 0 0.267   0 0 0 0 0.267   0 0 0 0 0.267   0 0 0 1 0" /> </filter>
	</defs>
	<style>
		tspan { white-space:pre }
		.shp0 { filter: url(#flt1);fill: #444444 } 
	</style>
	<path id="Shape 18" class="shp0" d="M23.18,1.39l0.71,0.71c0.78,0.78 0.78,2.05 0,2.83l-1.41,1.41l-3.54,-3.54l-0.71,0.71l3.54,3.54l0.42,-0.42l-10.83,10.83l0,0l0.51,-0.51l-3.54,-3.54l12.02,-12.02c0.78,-0.78 2.05,-0.78 2.83,0zM5.51,19.88l2.21,-5.67l3.36,3.36zM7.83,13.92l0.42,-0.42l-0.42,0.42zM2,3h14.8l-1.87,1.98l-11.92,0l0,17.03l17.03,-0.01l-0.05,-11.08l2.01,-1.98v14.06c0,0.55 -0.45,1 -1,1h-19c-0.55,0 -1,-0.45 -1,-1v-19c0,-0.55 0.45,-1 1,-1z" />
</svg>