<svg xmlns="http://www.w3.org/2000/svg" viewBox="0 0 31 30" width="31" height="30">
	<defs>
		<filter id="flt1"> <feColorMatrix in="SourceGraphic" type="matrix" values="0 0 0 0 0.267   0 0 0 0 0.267   0 0 0 0 0.267   0 0 0 1 0" /> </filter>
	</defs>
	<style>
		tspan { white-space:pre }
		.shp0 { filter: url(#flt1);fill: #444444 } 
	</style>
	<path id="zoom" class="shp0" d="M29.59 28.57L28.88 29.28C28.1 30.07 26.83 30.07 26.05 29.28L20.37 23.61C19.71 22.95 19.64 21.96 20.09 21.2L16.99 18.09C15.32 19.33 13.26 20.07 11.02 20.07C5.48 20.07 0.99 15.58 0.99 10.04C0.99 4.5 5.48 0.01 11.02 0.01C16.56 0.01 21.05 4.5 21.05 10.04C21.05 12.62 20.07 14.96 18.47 16.74L21.51 19.78C22.27 19.33 23.26 19.4 23.92 20.06L29.59 25.74C30.38 26.52 30.38 27.79 29.59 28.57ZM18.52 10C18.52 5.84 15.16 2.48 11 2.48C9.84 2.48 8.76 2.76 7.78 3.23C8.3 3.76 9.09 4.57 9.13 4.57C8.32 4.57 5.65 7.24 5.65 8.11C5.65 8.07 4.8 7.27 4.25 6.74C3.77 7.73 3.48 8.83 3.48 10C3.48 14.16 6.84 17.52 11 17.52C15.16 17.52 18.52 14.16 18.52 10Z" />
</svg>