<svg id="Capa_1" enable-background="new 0 0 511.977 511.977" height="512" viewBox="0 0 511.977 511.977" width="512" xmlns="http://www.w3.org/2000/svg"><g><g><g><path d="m397.16 145.438c-124.498 0-248.995-14.782-373.493-14.782-21.565 123.564-21.565 249.929 0 373.493h373.493c21.565-123.563 21.565-235.147 0-358.711z" fill="#e49542"/><path d="m84.02 504.157h-60.353c-21.546-123.573-21.546-249.927 0-373.5h60.353c-21.575 123.573-21.575 249.927 0 373.5z" fill="#e28424"/><path d="m270.747 300.255-60.334-38.036-60.333 38.036v-169.598h120.667z" fill="#db5b6f"/></g><g><path d="m137.202 465.088c-25.57 2.144-51.14 2.144-76.71 0-6.998-.587-12.533-6.122-13.12-13.12-2.144-25.57-2.144-51.14 0-76.71.587-6.998 6.122-12.533 13.12-13.12 25.57-2.144 51.14-2.144 76.71 0 6.998.587 12.533 6.122 13.12 13.12 2.144 25.57 2.144 51.14 0 76.71-.587 6.998-6.122 12.533-13.12 13.12z" fill="#ececec"/></g><path d="m468.327 11.162c-61.388-4.474-122.777-4.474-184.165 0-17.23 1.256-31.104 14.756-32.668 31.961-4.658 51.241-4.658 102.482 0 153.724 1.564 17.205 15.438 30.705 32.668 31.961 61.388 4.475 122.777 4.475 184.165 0 17.23-1.256 31.104-14.756 32.668-31.961 4.658-51.241 4.658-102.483 0-153.724-1.564-17.205-15.438-30.705-32.668-31.961z" fill="#ececec"/></g><g><path d="m59.873 472.561c12.933 1.084 25.957 1.627 38.981 1.627s26.048-.542 38.981-1.627c10.674-.895 19.072-9.292 19.967-19.967 2.169-25.866 2.169-52.097 0-77.963-.895-10.674-9.292-19.072-19.967-19.967-25.866-2.169-52.096-2.169-77.963 0-10.674.895-19.072 9.292-19.967 19.967-2.169 25.866-2.169 52.097 0 77.963.895 10.676 9.293 19.073 19.968 19.967zm-5.02-96.676c.281-3.354 2.919-5.992 6.273-6.273 12.519-1.05 25.122-1.574 37.729-1.574 12.604 0 25.212.525 37.728 1.574 3.354.281 5.992 2.919 6.273 6.273 2.099 25.035 2.099 50.422 0 75.457-.281 3.354-2.919 5.992-6.273 6.273-25.035 2.099-50.422 2.099-75.457 0-3.354-.281-5.992-2.919-6.273-6.273-2.1-25.036-2.1-50.423 0-75.457z"/><path d="m72.036 406.166h53.636c4.142 0 7.5-3.358 7.5-7.5s-3.358-7.5-7.5-7.5h-53.636c-4.142 0-7.5 3.358-7.5 7.5s3.358 7.5 7.5 7.5z"/><path d="m72.036 436.06h53.636c4.142 0 7.5-3.358 7.5-7.5s-3.358-7.5-7.5-7.5h-53.636c-4.142 0-7.5 3.358-7.5 7.5s3.358 7.5 7.5 7.5z"/><path d="m508.474 42.44c-1.908-20.92-18.56-37.221-39.594-38.758-61.465-4.477-123.795-4.476-185.262 0-21.032 1.538-37.683 17.838-39.592 38.762-2.43 26.776-3.583 53.749-3.484 80.716l-216.867.001c-3.645 0-6.762 2.62-7.388 6.21-16.93 96.987-20.684 195.861-11.156 293.876.377 3.876 3.641 6.775 7.456 6.775.243 0 .488-.012.734-.036 4.123-.401 7.14-4.068 6.739-8.19-9.194-94.583-5.85-189.968 9.938-283.634h112.592v162.093c0 2.732 1.485 5.248 3.877 6.567 1.13.623 2.377.933 3.623.933 1.392 0 2.781-.387 4-1.156l56.331-35.515 56.332 35.515c2.312 1.458 5.231 1.542 7.623.223s3.877-3.835 3.877-6.567v-64.697c1.753.349 3.543.601 5.368.735 22.098 1.609 44.336 2.631 66.588 3.085l-22.673 58.153c-1.505 3.859.403 8.208 4.263 9.712.896.349 1.816.514 2.723.514 3 0 5.834-1.813 6.989-4.777l24.708-63.371c3.395.027 6.79.046 10.184.046 8.875 0 17.745-.095 26.601-.28 6.235 85.884 2.15 172.368-12.161 257.277h-360.845c-2.53-15.006-4.763-30.208-6.65-45.282-.515-4.11-4.266-7.022-8.374-6.51-4.11.515-7.025 4.264-6.51 8.374 2.178 17.396 4.811 34.961 7.824 52.209.627 3.589 3.744 6.209 7.388 6.209h373.49c3.645 0 6.762-2.62 7.389-6.21 15.341-87.885 19.863-177.491 13.46-266.469 4.252-.139 8.501-.295 12.743-.477 4.139-.177 7.35-3.676 7.172-7.814s-3.68-7.337-7.814-7.172c-48.24 2.068-97.163 1.335-145.402-2.177-13.68-1-24.509-11.583-25.747-25.158-4.587-50.559-4.587-101.825-.001-152.371 1.239-13.58 12.068-24.161 25.746-25.162 60.74-4.422 122.338-4.422 183.078 0 13.681 1 24.509 11.582 25.747 25.158 4.588 50.549 4.588 101.815.001 152.371-1.239 13.579-12.067 24.161-25.737 25.161-2.631.189-5.272.377-7.903.546-4.134.265-7.271 3.831-7.005 7.965.264 4.134 3.845 7.265 7.964 7.005 2.67-.171 5.349-.363 8.027-.555 21.032-1.538 37.684-17.838 39.593-38.762 4.667-51.46 4.667-103.639-.003-155.091zm-245.222 187.018v57.202l-48.832-30.786c-2.444-1.541-5.556-1.541-8 0l-48.83 30.786v-148.498h83.133c.418 19.841 1.516 39.659 3.304 59.372 1.228 13.454 8.558 24.989 19.225 31.924z"/><path d="m287.495 53.776v132.419c0 4.142 3.357 7.5 7.5 7.5s7.5-3.358 7.5-7.5v-132.419c0-4.142-3.357-7.5-7.5-7.5s-7.5 3.358-7.5 7.5z"/><path d="m329.581 53.776c0-4.142-3.357-7.5-7.5-7.5s-7.5 3.358-7.5 7.5v110.171c0 4.142 3.357 7.5 7.5 7.5s7.5-3.358 7.5-7.5z"/><path d="m356.665 53.776c0-4.142-3.357-7.5-7.5-7.5s-7.5 3.358-7.5 7.5v110.171c0 4.142 3.357 7.5 7.5 7.5s7.5-3.358 7.5-7.5z"/><path d="m383.751 53.776c0-4.142-3.357-7.5-7.5-7.5s-7.5 3.358-7.5 7.5v110.171c0 4.142 3.357 7.5 7.5 7.5s7.5-3.358 7.5-7.5z"/><path d="m322.081 178.19c-4.143 0-7.5 3.358-7.5 7.5v.505c0 4.142 3.357 7.5 7.5 7.5s7.5-3.358 7.5-7.5v-.505c0-4.142-3.358-7.5-7.5-7.5z"/><path d="m349.165 178.19c-4.143 0-7.5 3.358-7.5 7.5v.505c0 4.142 3.357 7.5 7.5 7.5s7.5-3.358 7.5-7.5v-.505c0-4.142-3.357-7.5-7.5-7.5z"/><path d="m376.251 178.19c-4.143 0-7.5 3.358-7.5 7.5v.505c0 4.142 3.357 7.5 7.5 7.5s7.5-3.358 7.5-7.5v-.505c0-4.142-3.357-7.5-7.5-7.5z"/><path d="m430.421 178.19c-4.143 0-7.5 3.358-7.5 7.5v.505c0 4.142 3.357 7.5 7.5 7.5s7.5-3.358 7.5-7.5v-.505c0-4.142-3.357-7.5-7.5-7.5z"/><path d="m465.007 186.195v-.505c0-4.142-3.357-7.5-7.5-7.5s-7.5 3.358-7.5 7.5v.505c0 4.142 3.357 7.5 7.5 7.5s7.5-3.358 7.5-7.5z"/><path d="m395.836 53.776v132.419c0 4.142 3.357 7.5 7.5 7.5s7.5-3.358 7.5-7.5v-132.419c0-4.142-3.357-7.5-7.5-7.5s-7.5 3.358-7.5 7.5z"/><path d="m437.921 53.776c0-4.142-3.357-7.5-7.5-7.5s-7.5 3.358-7.5 7.5v110.171c0 4.142 3.357 7.5 7.5 7.5s7.5-3.358 7.5-7.5z"/><path d="m457.507 171.447c4.143 0 7.5-3.358 7.5-7.5v-110.171c0-4.142-3.357-7.5-7.5-7.5s-7.5 3.358-7.5 7.5v110.171c0 4.142 3.358 7.5 7.5 7.5z"/></g></g></svg>