<svg id="Capa_1" enable-background="new 0 0 512 512" height="512" viewBox="0 0 512 512" width="512" xmlns="http://www.w3.org/2000/svg"><g><g><path d="m401.431 126.891c-61.598 0-111.097 54.089-172.694 54.089-23.249 0-58.596-54.089-81.845-54.089-43.41 0-86.82 0-130.229 0-22.216 127.294-22.216 257.475 0 384.768h384.769c22.216-127.293 22.216-257.474-.001-384.768z" fill="#e49542"/><path d="m78.838 511.668h-62.176c-22.197-127.304-22.197-257.472 0-384.777h62.175c-22.226 127.305-22.226 257.473.001 384.777z" fill="#e28424"/><path d="m249.898 288.179-33.442-21.082c-4.527-2.854-10.292-2.854-14.819 0l-33.442 21.082c-9.252 5.833-21.304-.816-21.304-11.754v-149.534h124.31v149.534c.001 10.938-12.051 17.587-21.303 11.754z" fill="#db5c6e"/></g><g><path d="m133.625 471.419c-26.342 2.209-52.684 2.209-79.026 0-7.209-.605-12.912-6.307-13.516-13.516-2.209-26.342-2.209-52.684 0-79.026.605-7.209 6.307-12.912 13.516-13.516 26.342-2.209 52.684-2.209 79.026 0 7.209.605 12.912 6.307 13.516 13.516 2.209 26.342 2.209 52.684 0 79.026-.604 7.209-6.307 12.912-13.516 13.516z" fill="#ededed"/><g fill="#407093"><path d="m121.74 410.718h-55.256c-4.267 0-7.726-3.459-7.726-7.726s3.459-7.726 7.726-7.726h55.255c4.267 0 7.726 3.459 7.726 7.726.001 4.267-3.458 7.726-7.725 7.726z"/><path d="m121.74 441.515h-55.256c-4.267 0-7.726-3.459-7.726-7.726s3.459-7.726 7.726-7.726h55.255c4.267 0 7.726 3.459 7.726 7.726.001 4.266-3.458 7.726-7.725 7.726z"/></g></g><path d="m474.746 3.789c-63.242-4.609-126.483-4.609-189.725 0-17.751 1.294-32.044 15.201-33.655 32.926-4.799 52.788-4.799 105.576 0 158.365 1.611 17.725 15.904 31.632 33.655 32.926 63.242 4.61 126.484 4.61 189.725 0 17.751-1.294 32.043-15.201 33.655-32.926 4.799-52.788 4.799-105.577 0-158.365-1.611-17.724-15.904-31.632-33.655-32.926z" fill="#ededed"/><path d="m336.894 309.338c-.934 0-1.882-.17-2.805-.53-3.976-1.55-5.942-6.03-4.391-10.006l32.926-84.449c1.549-3.975 6.027-5.941 10.005-4.392 3.976 1.55 5.942 6.03 4.391 10.006l-32.926 84.449c-1.19 3.054-4.109 4.922-7.2 4.922z" fill="#ededed"/><g><g fill="#407093"><path d="m296.174 191.833c-4.268 0-7.726-3.459-7.726-7.726v-136.418c0-4.267 3.459-7.726 7.726-7.726 4.268 0 7.726 3.459 7.726 7.726v136.417c.001 4.268-3.458 7.727-7.726 7.727z"/><path d="m324.078 168.913c-4.268 0-7.726-3.459-7.726-7.726v-113.498c0-4.267 3.459-7.726 7.726-7.726s7.726 3.459 7.726 7.726v113.497c0 4.268-3.459 7.727-7.726 7.727z"/><path d="m351.98 168.913c-4.268 0-7.726-3.459-7.726-7.726v-113.498c0-4.267 3.459-7.726 7.726-7.726s7.726 3.459 7.726 7.726v113.497c.001 4.268-3.458 7.727-7.726 7.727z"/><path d="m379.884 168.913c-4.268 0-7.726-3.459-7.726-7.726v-113.498c0-4.267 3.459-7.726 7.726-7.726s7.726 3.459 7.726 7.726v113.497c.001 4.268-3.458 7.727-7.726 7.727z"/><g><path d="m324.078 191.833c-4.268 0-7.726-3.459-7.726-7.726v-.52c0-4.267 3.459-7.726 7.726-7.726s7.726 3.459 7.726 7.726v.52c0 4.267-3.459 7.726-7.726 7.726z"/><path d="m351.98 191.833c-4.268 0-7.726-3.459-7.726-7.726v-.52c0-4.267 3.459-7.726 7.726-7.726s7.726 3.459 7.726 7.726v.52c.001 4.267-3.458 7.726-7.726 7.726z"/><path d="m379.884 191.833c-4.268 0-7.726-3.459-7.726-7.726v-.52c0-4.267 3.459-7.726 7.726-7.726s7.726 3.459 7.726 7.726v.52c.001 4.267-3.458 7.726-7.726 7.726z"/></g><g><path d="m435.689 191.833c-4.268 0-7.726-3.459-7.726-7.726v-.52c0-4.267 3.459-7.726 7.726-7.726 4.268 0 7.726 3.459 7.726 7.726v.52c.001 4.267-3.458 7.726-7.726 7.726z"/><path d="m463.593 191.833c-4.268 0-7.726-3.459-7.726-7.726v-.52c0-4.267 3.459-7.726 7.726-7.726s7.726 3.459 7.726 7.726v.52c.001 4.267-3.458 7.726-7.726 7.726z"/></g><path d="m407.787 191.833c-4.268 0-7.726-3.459-7.726-7.726v-136.418c0-4.267 3.459-7.726 7.726-7.726s7.726 3.459 7.726 7.726v136.417c0 4.268-3.459 7.727-7.726 7.727z"/><path d="m435.689 168.913c-4.268 0-7.726-3.459-7.726-7.726v-113.498c0-4.267 3.459-7.726 7.726-7.726 4.268 0 7.726 3.459 7.726 7.726v113.497c.001 4.268-3.458 7.727-7.726 7.727z"/><path d="m463.593 168.913c-4.268 0-7.726-3.459-7.726-7.726v-113.498c0-4.267 3.459-7.726 7.726-7.726s7.726 3.459 7.726 7.726v113.497c.001 4.268-3.458 7.727-7.726 7.727z"/></g></g></g></svg>