<?xml version="1.0" encoding="iso-8859-1"?>
<!-- Generator: Adobe Illustrator 19.0.0, SVG Export Plug-In . SVG Version: 6.00 Build 0)  -->
<svg version="1.1" id="Layer_1" xmlns="http://www.w3.org/2000/svg" xmlns:xlink="http://www.w3.org/1999/xlink" x="0px" y="0px"
	 viewBox="0 0 512 512" style="enable-background:new 0 0 512 512;" xml:space="preserve">
<g>
	<g>
		<rect x="69.587" y="69.587" width="33.391" height="33.391"/>
	</g>
</g>
<g>
	<g>
		<path d="M339.432,0v69.589h-52.029v33.391h52.029v36.197h-52.029v33.391h52.029h15.655h53.698v50.989h33.391v-50.989H512V0
			H339.432z M478.609,139.177H372.823V33.391h105.786V139.177z"/>
	</g>
</g>
<g>
	<g>
		<rect x="409.021" y="69.587" width="33.391" height="33.391"/>
	</g>
</g>
<g>
	<g>
		<rect x="69.587" y="409.021" width="33.391" height="33.391"/>
	</g>
</g>
<g>
	<g>
		<rect x="409.021" y="409.021" width="33.391" height="33.391"/>
	</g>
</g>
<g>
	<g>
		<path d="M172.568,69.589V0H0v172.568h69.589v50.989h33.391v-50.989h69.589V102.98h50.989V69.589H172.568z M139.177,139.177H33.391
			V33.391h105.786V139.177z"/>
	</g>
</g>
<g>
	<g>
		<rect x="223.555" y="306.109" width="63.844" height="33.391"/>
	</g>
</g>
<g>
	<g>
		<path d="M206.861,356.127v52.893h-34.293v-69.589H102.98v-33.771h52.893v-33.391H69.589v67.162H0V512h172.568v-69.589h67.684
			v-86.284H206.861z M139.177,478.609H33.391V372.823h105.786V478.609z"/>
	</g>
</g>
<g>
	<g>
		<path d="M442.177,339.432v-50.466h-33.391v50.466h-69.354v69.589h-68.725v86.284h33.391v-52.893h35.334V512H512V339.432H442.177z
			 M478.609,478.609H372.823V372.823h105.786V478.609z"/>
	</g>
</g>
<g>
	<g>
		<polygon points="206.861,155.873 206.861,206.861 155.873,206.861 155.873,240.253 240.253,240.253 240.253,155.873 		"/>
	</g>
</g>
<g>
	<g>
		<polygon points="270.707,199.34 270.707,283.72 304.098,283.72 304.098,232.732 355.086,232.732 355.086,199.34 		"/>
	</g>
</g>
<g>
</g>
<g>
</g>
<g>
</g>
<g>
</g>
<g>
</g>
<g>
</g>
<g>
</g>
<g>
</g>
<g>
</g>
<g>
</g>
<g>
</g>
<g>
</g>
<g>
</g>
<g>
</g>
<g>
</g>
</svg>
