<svg xmlns="http://www.w3.org/2000/svg" viewBox="0 0 29 27" width="29" height="27">
	<defs>
		<filter id="flt1"> <feColorMatrix in="SourceGraphic" type="matrix" values="0 0 0 0 1   0 0 0 0 1   0 0 0 0 1   0 0 0 1 0" /> </filter>
	</defs>
	<style>
		tspan { white-space:pre }
		.shp0 { filter: url(#flt1);fill: #ffffff } 
	</style>
	<path id="shipping" class="shp0" d="M15.09 19.37C14.63 18.94 14.1 18.6 13.52 18.4L12.3 13.65L26.81 9.6L28.36 15.65L15.09 19.37ZM10.47 6.52L20.14 3.82L21.7 9.88L12.03 12.58L10.47 6.52ZM10.91 18.3C10.64 18.38 10.39 18.49 10.14 18.61L5.88 1.99L4.27 1.99C4.11 2.34 3.78 2.59 3.38 2.59L1.38 2.59C0.82 2.59 0.37 2.12 0.37 1.55C0.37 0.97 0.82 0.5 1.38 0.5L3.38 0.5C3.71 0.5 4 0.68 4.18 0.95L7.26 0.95L7.26 1L7.3 0.98L11.71 18.17C11.45 18.19 11.18 18.23 10.91 18.3ZM11.17 19.31C13.04 18.79 14.96 19.95 15.46 21.9C15.96 23.85 14.85 25.86 12.98 26.38C11.11 26.9 9.19 25.75 8.69 23.79C8.19 21.84 9.3 19.84 11.17 19.31ZM10.64 23.32C10.85 24.15 11.68 24.65 12.48 24.43C13.28 24.2 13.75 23.34 13.54 22.51C13.32 21.67 12.5 21.17 11.7 21.4C10.9 21.62 10.42 22.48 10.64 23.32ZM28.24 19.2L16.56 22.47C16.53 22.19 16.5 21.91 16.42 21.63C16.35 21.35 16.25 21.09 16.13 20.83L27.76 17.58L28.24 19.2Z" />
</svg>