<svg xmlns="http://www.w3.org/2000/svg" viewBox="0 0 26 33" width="26" height="33">
	<defs>
		<filter id="flt1"> <feColorMatrix in="SourceGraphic" type="matrix" values="0 0 0 0 1   0 0 0 0 1   0 0 0 0 1   0 0 0 1 0" /> </filter>
	</defs>
	<style>
		tspan { white-space:pre }
		.shp0 { filter: url(#flt1);fill: #ffffff } 
	</style>
	<path id="clipboard 2" class="shp0" d="M25.17 21.22C22.28 21.84 16.34 28.86 14.42 32.29C11.69 29.02 8.48 26.52 6.23 25.74L11.53 22.62L14.09 27.46C14.09 27.46 18.27 17.63 24.85 14.36C24.69 16.69 24.04 18.72 25.17 21.22ZM20.99 6.03C20.99 5.48 20.55 5.03 20 5.03L16.01 5.03L16.01 3.04L20.93 3.04C22.03 3.04 22.99 3.93 22.99 5.03L22.99 14.53C21.85 14.98 20.99 15.93 20.99 15.93L20.99 6.03ZM18 6.03C18.55 6.03 19 6.48 19 7.03C19 7.58 19 9.02 19 9.02L4.99 9.02C4.99 9.02 4.99 7.58 4.99 7.03C4.99 6.48 5.43 6.03 5.98 6.03L8.97 6.03C8.97 6.03 8.98 4.76 8.98 3.14C8.98 1.46 10.28 0.05 11.96 0.05C13.64 0.05 15.05 1.53 15.05 3.15C15.05 4.89 15.01 6.03 15.01 6.03L18 6.03ZM11.96 3.04C11.41 3.04 10.97 3.49 10.97 4.04C10.97 4.59 11.41 5.03 11.96 5.03C12.51 5.03 12.96 4.59 12.96 4.04C12.96 3.49 12.51 3.04 11.96 3.04ZM2.99 6.03L2.99 29.01C2.99 29.56 3.44 30.01 3.99 30.01L9.91 30.01C10.99 30.58 11.68 31.34 12.07 32L2.99 32C1.89 32 1 31.11 1 30.01L1 5.03C1 3.93 1.89 3.04 2.99 3.04L8.04 3.04L8.04 5.03L3.99 5.03C3.44 5.03 2.99 5.48 2.99 6.03ZM20 30.01C20.55 30.01 20.99 29.56 20.99 29.01L20.99 25.71C21.66 25.04 22.33 24.42 22.99 23.88L22.99 30.01C22.99 31.11 22.03 32 20.93 32L15.86 32C16.29 31.35 16.76 30.68 17.27 30.01L20 30.01Z" />
</svg>