<?xml version="1.0" encoding="iso-8859-1"?>
<!-- Generator: Adobe Illustrator 19.0.0, SVG Export Plug-In . SVG Version: 6.00 Build 0)  -->
<svg version="1.1" id="Capa_1" xmlns="http://www.w3.org/2000/svg" xmlns:xlink="http://www.w3.org/1999/xlink" x="0px" y="0px"
	 viewBox="0 0 512 512" style="enable-background:new 0 0 512 512;" xml:space="preserve">
<path style="fill:#E2A11E;" d="M238.412,504.258c0,4.274-3.458,7.742-7.742,7.742c-4.274,0-7.742-3.468-7.742-7.742
	c0-14.08-1.352-27.551-3.623-40.238c-5.874-32.785-17.858-60.356-28.387-79.742c-15.948-29.347-32.134-46.885-32.299-47.061
	c-2.911-3.128-2.735-8.031,0.392-10.942s8.021-2.746,10.932,0.382c0.712,0.754,17.466,18.849,34.333,49.786
	c11.52,21.12,24.671,51.427,30.741,87.577C237.152,476.759,238.412,490.219,238.412,504.258z"/>
<path style="fill:#F9CE55;" d="M206.287,485.261c0,0-49.984,24.992-100.592,15.213c-18.936-3.645-37.961-12.165-54.485-28.689
	c0,0,15.836-106.077,45.51-168.072c3.943-8.235,8.132-15.693,12.568-22.022l18.456,1.427l37.3,2.892
	c0,5.188,0.662,15.342,2.023,28.584C171.684,359.885,184.368,441.438,206.287,485.261z"/>
<path style="fill:#E2A11E;" d="M105.695,500.475c-18.936-3.645-37.961-12.165-54.485-28.689c0,0,20.323-136.154,58.077-190.094
	l18.456,1.427l5.343,5.279C119.275,316.762,86.929,426.523,105.695,500.475z"/>
<circle style="fill:#EF4A6E;" cx="398.44" cy="109.905" r="109.905"/>
<path style="fill:#EAEAEA;" d="M461.877,86.292H334.998c-4.083,0-7.393,3.31-7.393,7.393v32.436c0,4.083,3.31,7.393,7.393,7.393
	h126.878c4.083,0,7.393-3.31,7.393-7.393V93.685C469.27,89.602,465.96,86.292,461.877,86.292z"/>
<path style="fill:#FCD2BE;" d="M228.388,108.851v98.231c0,45.017-36.509,81.526-81.539,81.526c-12.062,0-23.5-2.62-33.798-7.315
	v-0.013c-24.915-11.361-43.11-34.901-46.963-63.018c-3.618-1.271-7.016-3.347-9.922-6.251c-10.272-10.259-10.272-26.912,0-37.171
	c10.259-10.284,26.924-10.284,37.196,0l6.848-39.259l4.669-26.73h123.509V108.851z"/>
<path style="fill:#FAB998;" d="M113.05,281.28c-24.915-11.361-43.11-34.901-46.963-63.018c-3.618-1.271-7.016-3.347-9.922-6.251
	c-10.272-10.259-10.272-26.912,0-37.171c10.259-10.284,26.924-10.284,37.196,0l6.848-39.259l21.465,4.358
	C112.647,155.541,74.53,212.49,113.05,281.28z"/>
<path style="fill:#50515B;" d="M266.505,69.098c0,39.129-31.723,70.839-70.839,70.839h-73.991v6.575
	c0,15.641-12.684,28.313-28.325,28.313c-7.574-7.575-18.637-9.559-28.027-5.953v-28.935c0-39.115,31.723-70.839,70.839-70.839
	L266.505,69.098L266.505,69.098z"/>
<path style="fill:#393A42;" d="M193.978,69.098h-57.817c-39.115,0-70.839,31.723-70.839,70.839v28.935
	c9.389-3.606,20.453-1.622,28.027,5.953c15.641,0,28.325-12.671,28.325-28.313v-6.575h1.464
	C123.138,100.822,154.862,69.098,193.978,69.098z"/>
<g>
	<path style="fill:#50515B;" d="M158.802,195.771c-4.277,0-7.742-3.466-7.742-7.742v-13.485c0-4.276,3.465-7.742,7.742-7.742
		s7.742,3.466,7.742,7.742v13.485C166.544,192.305,163.079,195.771,158.802,195.771z"/>
	<path style="fill:#50515B;" d="M193.863,195.771c-4.277,0-7.742-3.466-7.742-7.742v-13.485c0-4.276,3.465-7.742,7.742-7.742
		s7.742,3.466,7.742,7.742v13.485C201.605,192.305,198.139,195.771,193.863,195.771z"/>
</g>
<path style="fill:#FFFFFF;" d="M162.516,256.685c-2.688,0-5.3-1.401-6.729-3.902c-5.322-9.313-14.429-14.376-27.066-15.051
	c-4.27-0.228-7.547-3.873-7.319-8.144c0.227-4.27,3.882-7.556,8.144-7.319c17.975,0.959,31.697,8.854,39.684,22.83
	c2.121,3.712,0.832,8.442-2.88,10.563C165.139,256.356,163.819,256.685,162.516,256.685z"/>
<path style="fill:#E2A11E;" d="M96.424,337.724c-0.382,0.341-19.778,17.858-38.865,47.061
	c-12.614,19.293-26.963,46.688-34.023,79.236c-2.756,12.686-4.397,26.157-4.397,40.238c0,4.274-3.468,7.742-7.742,7.742
	s-7.742-3.468-7.742-7.742c0-14.039,1.507-27.499,4.067-40.238c7.308-36.408,23.216-66.89,37.141-88.114
	c20.294-30.937,40.413-49.001,41.259-49.755c3.2-2.839,8.093-2.56,10.932,0.64C99.903,329.982,99.614,334.874,96.424,337.724z"/>
<g>
	<path style="fill:#FCD2BE;" d="M7.722,464.021h15.814c-2.756,12.686-4.397,26.157-4.397,40.238c0,4.274-3.468,7.742-7.742,7.742
		s-7.742-3.468-7.742-7.742C3.655,490.219,5.162,476.759,7.722,464.021z"/>
	<path style="fill:#FCD2BE;" d="M238.412,504.258c0,4.274-3.458,7.742-7.742,7.742c-4.274,0-7.742-3.468-7.742-7.742
		c0-14.08-1.352-27.551-3.623-40.238h15.711C237.152,476.759,238.412,490.219,238.412,504.258z"/>
</g>
<g>
</g>
<g>
</g>
<g>
</g>
<g>
</g>
<g>
</g>
<g>
</g>
<g>
</g>
<g>
</g>
<g>
</g>
<g>
</g>
<g>
</g>
<g>
</g>
<g>
</g>
<g>
</g>
<g>
</g>
</svg>
