<svg id="Capa_1" enable-background="new 0 0 512 512" height="512" viewBox="0 0 512 512" width="512" xmlns="http://www.w3.org/2000/svg"><g><g><g><g><path d="m147.777 9.984-103.867 103.868c-8.25 8.25-8.25 21.627 0 29.877l91.176 91.176 50.699 50.699c-10.062-10.062-10.062-26.376 0-36.439l10.739-10.739 89.847-89.847c3.3-3.3 3.3-8.651 0-11.951l-126.643-126.644c-3.301-3.3-8.651-3.3-11.951 0z" fill="#e49824"/></g></g><g><g><path d="m293.932 177.456c-7.625-7.625-10.408-18.252-8.364-28.075l-99.784 99.784c-10.062 10.062-10.062 26.376 0 36.439 10.062 10.062 26.376 10.062 36.438 0l95.241-95.241c1.456-1.456.392-3.901-1.667-3.894-7.91.025-15.828-2.977-21.864-9.013z" fill="#eaeaea"/></g></g><g><g><path d="m147.777 9.984-15.934 15.934 87.64 87.64c15.491 15.491 15.491 40.606 0 56.096l-67.775 67.775-7.048 7.048 41.125 41.125c-10.062-10.062-10.062-26.376 0-36.439l10.739-10.739 89.847-89.847c3.3-3.3 3.3-8.651 0-11.951l-126.643-126.642c-3.301-3.3-8.651-3.3-11.951 0z" fill="#df751c"/></g></g><g><g><path d="m293.932 177.456c-7.625-7.625-10.408-18.252-8.363-28.075l-14.913 14.913c-2.044 9.823.738 20.451 8.363 28.075.023.023.046.046.07.069 3.618 3.596 3.736 9.4.129 13.007l-85.543 85.543c9.433 4.125 20.829 2.335 28.548-5.385l84.871-84.871 10.37-10.37c1.455-1.455.392-3.901-1.667-3.894-7.91.026-15.829-2.976-21.865-9.012z" fill="#c6d0da"/></g></g></g><g><path d="m405.773 144.937h57.672c5.983 0 10.833-4.85 10.833-10.833v-14.876c0-5.983-4.85-10.833-10.833-10.833h-57.672c-5.983 0-10.833 4.85-10.833 10.833v14.876c0 5.983 4.85 10.833 10.833 10.833z" fill="#465961"/></g><g><path d="m463.421 108.395h-22.982c5.997 0 10.858 4.861 10.858 10.858v14.826c0 5.997-4.861 10.858-10.858 10.858h22.982c5.997 0 10.858-4.861 10.858-10.858v-14.826c0-5.997-4.862-10.858-10.858-10.858z" fill="#394949"/></g><g><circle cx="121.859" cy="459.562" fill="#eaeaea" r="44.921"/></g><g><path d="m140.994 418.917c6.251 7.717 10.002 17.543 10.002 28.249 0 24.809-20.112 44.921-44.921 44.921-6.845 0-13.329-1.538-19.135-4.276 8.235 10.167 20.815 16.672 34.919 16.672 24.809 0 44.921-20.112 44.921-44.921 0-17.964-10.548-33.459-25.786-40.645z" fill="#c6d0da"/></g><g><circle cx="242.862" cy="459.562" fill="#eaeaea" r="44.921"/></g><g><path d="m261.997 418.917c6.251 7.717 10.002 17.543 10.002 28.249 0 24.809-20.112 44.921-44.921 44.921-6.845 0-13.329-1.538-19.135-4.276 8.235 10.167 20.815 16.672 34.919 16.672 24.809 0 44.921-20.112 44.921-44.921 0-17.964-10.549-33.459-25.786-40.645z" fill="#c6d0da"/></g><g><circle cx="121.859" cy="459.562" r="10.781"/><ellipse cx="242.862" cy="459.562" rx="10.781" ry="10.781" transform="matrix(.987 -.16 .16 .987 -70.478 44.836)"/><path d="m463.421 100.878h-57.622c-10.086 0-18.294 8.17-18.368 18.239h-8.707c-16.903 0-31.446 12.056-34.58 28.677l-18.229 97.395h-52.644l49.511-49.511c2.814-2.814 3.646-7.003 2.12-10.671-1.532-3.682-5.099-6.056-9.096-6.056-.032 0-.071 0-.109 0-6.214 0-12.054-2.417-16.447-6.811-5.098-5.097-7.498-12.183-6.632-19.276 5.268-6.266 4.964-15.656-.93-21.552l-126.645-126.644c-6.224-6.224-16.354-6.225-22.582 0l-103.868 103.868c-5.41 5.41-8.389 12.603-8.389 20.254s2.979 14.844 8.389 20.254l77.95 77.95c2.935 2.934 7.694 2.936 10.632 0 2.935-2.935 2.935-7.695 0-10.631l-77.951-77.95c-2.57-2.57-3.986-5.987-3.986-9.622s1.415-7.053 3.987-9.623l103.866-103.868c.364-.364.958-.364 1.32 0l126.643 126.643c.364.364.364.957 0 1.32l-101.83 101.926h-139.876c-2.088-.07-4.243.142-6.979 2.671-1.429 1.694-2.037 3.932-1.663 6.116l20.813 121.46c.948 5.553 5.726 9.584 11.361 9.584h236.861l-6.624 35.392h-15.42c-9.27-8.257-21.474-13.288-34.835-13.288-13.362 0-25.565 5.031-34.835 13.288h-51.333c-9.27-8.257-21.473-13.288-34.834-13.288-13.362 0-25.565 5.031-34.835 13.288h-19.686c-4.152 0-7.517 3.366-7.517 7.517s3.365 7.517 7.517 7.517h7.98c-3.759 7.225-5.898 15.423-5.898 24.116 0 28.914 23.524 52.438 52.439 52.438 28.914 0 52.438-23.524 52.438-52.438 0-8.693-2.139-16.89-5.898-24.116h27.922c-3.759 7.225-5.898 15.423-5.898 24.116 0 28.914 23.524 52.438 52.439 52.438 7.393 0 14.543-1.51 21.253-4.487 3.795-1.685 5.506-6.126 3.822-9.921-1.684-3.794-6.126-5.502-9.92-3.822-4.778 2.12-9.876 3.195-15.155 3.195-20.624 0-37.404-16.779-37.404-37.404s16.78-37.404 37.404-37.404 37.404 16.779 37.404 37.404c0 5.08-.998 10.002-2.967 14.629-1.625 3.82.154 8.235 3.975 9.86 3.823 1.628 8.236-.155 9.86-3.974 2.765-6.499 4.167-13.401 4.167-20.515 0-8.693-2.138-16.89-5.898-24.116h6.626c5.545 0 10.31-3.955 11.331-9.406l51.559-275.471c1.794-9.514 10.123-16.419 19.804-16.419h8.704c.039 10.099 8.264 18.304 18.371 18.304h57.622c10.132 0 18.375-8.244 18.375-18.376v-14.826c0-10.13-8.244-18.373-18.375-18.373zm-341.561 396.087c-20.624 0-37.404-16.779-37.404-37.404s16.78-37.404 37.404-37.404 37.403 16.779 37.403 37.404-16.779 37.404-37.403 37.404zm192.475-189.918h-54.05l3.422-46.824h59.392zm-121.683 62.938v-47.903h51.458l-3.501 47.903zm-63.804 0-3.502-47.903h52.271v47.903zm20.925-109.762 27.845 27.845v18.98h-53.37l-3.423-46.824h28.948zm42.879 21.438v-21.438h44.32l-20.065 20.065c-3.446 3.446-8.029 5.345-12.904 5.345-4.176 0-8.134-1.404-11.351-3.972zm0 25.386v-8.36c3.591 1.3 7.419 1.98 11.351 1.98 8.891 0 17.249-3.462 23.535-9.748l20.336-20.336-2.665 36.464zm112.126-114.63-52.772 52.771h-51.615l78.584-78.585c1.785 6.011 5.051 11.578 9.64 16.168 4.584 4.583 10.12 7.86 16.163 9.646zm-199.029 67.806 3.423 46.824h-54.118l-8.023-46.824zm-48.119 61.859h52.641l3.502 47.903h-47.934zm198.055 47.903 3.501-47.903h52.335l-8.966 47.903zm211.076-235.906c0 1.842-1.499 3.341-3.341 3.341h-57.622c-1.842 0-3.341-1.499-3.341-3.341v-14.826c0-1.842 1.499-3.341 3.341-3.341h57.622c1.842 0 3.341 1.499 3.341 3.341z"/><path d="m157.037 99.679-33.488 33.487c-2.935 2.935-2.935 7.695 0 10.631 1.468 1.468 3.392 2.202 5.316 2.202 1.923 0 3.848-.734 5.316-2.202l33.488-33.487c2.935-2.935 2.935-7.695 0-10.631-2.937-2.936-7.696-2.936-10.632 0z"/><path d="m145.399 165.648c1.468 1.468 3.393 2.202 5.316 2.202s3.848-.734 5.316-2.202l33.488-33.488c2.935-2.935 2.935-7.695 0-10.631-2.936-2.935-7.695-2.935-10.632 0l-33.488 33.488c-2.935 2.936-2.935 7.696 0 10.631z"/></g></g></svg>