<svg id="Capa_1" enable-background="new 0 0 512 512" height="512" viewBox="0 0 512 512" width="512" xmlns="http://www.w3.org/2000/svg"><g><path d="m472.54 412.591c-1.44-8.16-9.22-13.61-17.38-12.17l-14.77 2.61-33.86-191.96c-1.44-8.15-9.22-13.59-17.38-12.16l-49.48 8.72 11.5 66.93c1.4 8.14-4.05 15.88-12.18 17.32l-59.7 10.52c-8.426 1.453-16.032-4.267-17.39-12.23l-11.48-66.81-53.33 9.4-5.2-29.55 118.09-20.81-13.02-73.82c-1.44-8.15-9.22-13.6-17.38-12.16l-34.62 6.1 4.64 26.31c1.44 8.16-4 15.94-12.16 17.38-7.953 1.447-15.918-3.857-17.38-12.16l-4.64-26.32-39.12 6.89-15.14-85.98c-1.09-6.21-5.95-11.07-12.17-12.17l-92.15-16.24c-8.16-1.44-15.94 4.01-17.38 12.17-1.43 8.15 4.01 15.93 12.17 17.37l81.81 14.42c27.798 158.67 26.18 149.314 59.38 337.39 57.586-46.019 145.468-6.279 146.08 69.8 37.575-6.625 101.271-17.854 121.47-21.41 8.16-1.44 13.6-9.22 12.17-17.38z"/><path d="m288.914 270.239 30.158-5.315-8.952-52.087-30.156 5.315z"/><path d="m238.47 392.941c-32.651 5.756-54.433 36.828-48.671 69.488 5.127 29.063 30.506 49.57 59.061 49.57 37.174 0 65.62-33.537 59.115-70.404-5.745-32.57-36.925-54.395-69.505-48.654zm15.628 88.597c-16.292 2.872-31.883-8.039-34.756-24.32-2.877-16.313 8.002-31.854 24.335-34.731 16.283-2.872 31.881 8.034 34.755 24.32v.001c2.877 16.316-8.005 31.852-24.334 34.73z"/></g></svg>