<svg enable-background="new 0 0 110 110" height="512" viewBox="0 0 110 110" width="512" xmlns="http://www.w3.org/2000/svg"><path d="m60.5695267 55.8107643h-27.1758805c-1.2832146 0-2.3234673-1.0402527-2.3234673-2.3234673v-27.1758804c0-1.2832165 1.0402527-2.3234673 2.3234673-2.3234673h27.1758804c1.2832184 0 2.3234673 1.0402508 2.3234673 2.3234673v27.1758804c0 1.2832146-1.0402488 2.3234673-2.3234672 2.3234673z" fill="#ededed"/><path d="m92.440239 20.9822044c-.1711121-.7301598-.899147-1.1850491-1.6346207-1.0139332l-13.1025009 3.0673103c-.5314102.1243496-.9374084.5547943-1.0309372 1.093647l-1.9315491 11.2425518h-33.0204887-.0329475-22.8028928c-.3953705 0-.7705479.1721802-1.0288143.4708328-.2593288.2986526-.374115.6950874-.3177853 1.0862045l4.9697666 33.9551086c.0988426.6685181.6717052 1.1637955 1.3465977 1.1637955h18.6674442.0329475 27.8002243l4.4936905 4.4946823c.6259995.6259995.3953705 1.3497849.3103409 1.5559769-.0860825.2072449-.4336319.8810806-1.3189621.8810806h-44.4737452c-.7514172 0-1.3604145.6089935-1.3604145 1.3604126s.6089973 1.3604126 1.3604145 1.3604126h44.4737473c1.710083 0 3.1778412-.9809875 3.8325424-2.5603409.6536407-1.579361.3092804-3.3117599-.9002075-4.5212555l-4.4086609-4.4096603 4.8679276-33.2594872 1.9703445-11.4705276 12.2246094-2.8621864c.7312144-.1711138 1.1850413-.9023379 1.0139293-1.6346244zm-22.6976777 48.3446846h-7.0128441l.4474487-4.8252182h7.2715797zm-18.7402458-12.6348533-.1758308 5.0888023h-7.1534691l-.12043-5.0888023zm-7.5141639-2.720829-.1383667-5.8487244h7.9486618l-.2020683 5.8487244zm10.2361259 2.720829h7.4437523l-.4719582 5.0888023h-7.147625zm10.1772041 0h7.6902008l-.7447128 5.0888023h-7.4174461zm.2523575-2.720829.5424347-5.8487244h8.1496048l-.8559723 5.8487244zm-2.7334518 0h-7.6021156l.2021332-5.8487244h7.942421zm-7.3059883-8.5695534.2526207-7.3090401h8.5259743l-.6778145 7.3090401zm-2.7218934 0h-8.10709l-.1729736-7.3090401h8.5326195zm-10.8294487 0h-8.1031036l-.5982361-7.3090401h8.5283661zm.0643692 2.720829.1384315 5.8487244h-7.6045074l-.4787331-5.8487244zm-10.1964702 5.8487244h-7.6487465l-.8559723-5.8487244h8.0259838zm-7.2505207 2.720829h7.4732494l.4164944 5.0888023h-7.1450348zm10.2036438 0h7.4461479l.12043 5.0888023h-7.1500168zm7.6309471 7.8096351.1141853 4.8252182h-6.7109375l-.3949699-4.8252182zm2.7223549 0h6.9951134l-.1667976 4.8252182h-6.7141266zm9.7170029 0h6.9893341l-.4475174 4.8252182h-6.7085457zm19.7897186-19.1000175h-8.2954712l.6778793-7.3090401h8.6872635zm-44.1128483-7.3090401.598238 7.3090401h-8.2014828l-1.0696659-7.3090401zm-4.8078842 26.4090576h6.9695358l.394907 4.8252182h-6.6582623z" fill="#de594e"/><path d="m59.1874237 76.0605316c-3.868084 0-7.0036812 3.1355972-7.0036812 7.003746 0 3.8678818 3.1355972 7.003479 7.0036812 7.003479 3.8680153 0 7.0036087-3.1355972 7.0036087-7.003479 0-3.8681488-3.1355934-7.003746-7.0036087-7.003746z" fill="#344d5b"/><path d="m59.1874084 78.9794617c-2.2559662 0-4.0847282 1.8287582-4.0847282 4.0847626 0 2.2558517 1.8287621 4.08461 4.0847282 4.08461 2.255928 0 4.0846901-1.8287582 4.0846901-4.08461 0-2.2560044-1.828762-4.0847626-4.0846901-4.0847626z" fill="#ededed"/><path d="m32.1841164 76.0605316c-3.868084 0-7.0036812 3.1355972-7.0036812 7.003746 0 3.8678818 3.1355972 7.003479 7.0036812 7.003479 3.8680153 0 7.0036125-3.1355972 7.0036125-7.003479 0-3.8681488-3.1355972-7.003746-7.0036125-7.003746z" fill="#344d5b"/><path d="m32.1841011 78.9794617c-2.2559643 0-4.0847263 1.8287582-4.0847263 4.0847626 0 2.2558517 1.8287621 4.08461 4.0847263 4.08461 2.255928 0 4.0846901-1.8287582 4.0846901-4.08461 0-2.2560044-1.8287621-4.0847626-4.0846901-4.0847626z" fill="#ededed"/></svg>