<svg height="512pt" viewBox="0 -20 512.00027 512" width="512pt" xmlns="http://www.w3.org/2000/svg"><path d="m285 115h35v35c0 5.523438 4.476562 10 10 10s10-4.476562 10-10v-35h35c5.523438 0 10-4.476562 10-10s-4.476562-10-10-10h-35v-35c0-5.523438-4.476562-10-10-10s-10 4.476562-10 10v35h-35c-5.523438 0-10 4.476562-10 10s4.476562 10 10 10zm0 0"/><path d="m510.007812 99.007812c-1.890624-2.523437-4.855468-4.007812-8.007812-4.007812h-67.480469c-5.050781-53.222656-49.996093-95-104.519531-95s-99.46875 41.777344-104.519531 95h-65.121094l-32.359375-16.179688v-35.820312c0-5.523438-4.476562-10-10-10h-30v-10c0-5.523438-4.476562-10-10-10h-68c-5.523438 0-10 4.476562-10 10v40c0 5.523438 4.476562 10 10 10h68c5.523438 0 10-4.476562 10-10v-10h20v32c0 3.789062 2.140625 7.25 5.527344 8.945312l35.335937 17.667969 28.34375 192.71875-27.925781 19.464844c-2.683594 1.871094-4.28125 4.933594-4.28125 8.203125v30.929688c-25.566406 4.714843-45 27.160156-45 54.070312 0 30.328125 24.671875 55 55 55 26.910156 0 49.355469-19.433594 54.070312-45h131.855469c4.71875 25.566406 27.164063 45 54.074219 45 30.324219 0 55-24.671875 55-55s-24.675781-55-55-55c-26.910156 0-49.355469 19.433594-54.074219 45h-131.855469c-4.117187-22.320312-21.75-39.953125-44.070312-44.070312v-25.710938l26.140625-18.21875h250.859375c4.4375 0 8.34375-2.921875 9.59375-7.179688l60-204c.890625-3.023437.300781-6.289062-1.585938-8.8125zm-442.007812-46.007812h-48v-20h48zm327 329c19.300781 0 35 15.699219 35 35s-15.699219 35-35 35-35-15.699219-35-35 15.699219-35 35-35zm-205 35c0 19.300781-15.699219 35-35 35s-35-15.699219-35-35 15.699219-35 35-35 35 15.699219 35 35zm140-397c46.867188 0 85 38.132812 85 85s-38.132812 85-85 85-85-38.132812-85-85 38.132812-85 85-85zm-153.070312 145-7.351563-50h55.90625c1.753906 18.46875 8.308594 35.554688 18.40625 50zm2.941406 20h37.914062l4.105469 50h-34.667969zm16.765625 114-6.472657-44h33.367188l3.613281 44zm81.363281 0h-30.785156l-3.613282-44h34.398438zm0-64h-36.039062l-4.105469-50h24.230469c4.9375 4.195312 10.257812 7.957031 15.914062 11.191406zm51.023438 64h-31.023438v-44h35.78125zm6.917968-64h-37.941406v-29.992188c10.09375 3.238282 20.84375 4.992188 32 4.992188 2.925781 0 5.820312-.125 8.683594-.363281zm44.445313 64h-31.246094l4.753906-44h38.640625zm-24.328125-64 3.148437-29.136719c14.414063-4.179687 27.546875-11.390625 38.691407-20.863281h13.964843l-13.804687 50zm78.460937 64h-33.382812l12.148437-44h34.175782zm18.820313-64h-34.53125l13.804687-50h35.433594zm20.589844-70h-57.8125c10.09375-14.441406 16.640624-31.53125 18.394531-50h54.125zm0 0"/><path d="m165 417c0 5.523438-4.476562 10-10 10s-10-4.476562-10-10 4.476562-10 10-10 10 4.476562 10 10zm0 0"/><path d="m405 417c0 5.523438-4.476562 10-10 10s-10-4.476562-10-10 4.476562-10 10-10 10 4.476562 10 10zm0 0"/></svg>