<?xml version="1.0" encoding="iso-8859-1"?>
<!-- Generator: Adobe Illustrator 19.0.0, SVG Export Plug-In . SVG Version: 6.00 Build 0)  -->
<svg version="1.1" id="Capa_1" xmlns="http://www.w3.org/2000/svg" xmlns:xlink="http://www.w3.org/1999/xlink" x="0px" y="0px"
	 viewBox="0 0 512 512" style="enable-background:new 0 0 512 512;" xml:space="preserve">
<rect x="40.078" y="135.454" style="fill:#FF7956;" width="464.908" height="48.094"/>
<polygon style="fill:#FFE475;" points="408.798,351.875 88.172,351.875 88.172,183.546 456.892,183.546 "/>
<rect x="40.078" y="135.454" style="fill:#FF5023;" width="32.063" height="48.094"/>
<rect x="88.172" y="183.548" style="fill:#FF9900;" width="32.063" height="168.329"/>
<g>
	<circle style="fill:#898890;" cx="144.282" cy="424.018" r="24.047"/>
	<circle style="fill:#898890;" cx="256.501" cy="424.018" r="24.047"/>
</g>
<rect x="112.219" y="232.143" style="fill:#FFFFFF;" width="16.031" height="15.029"/>
<rect x="8.016" y="63.313" style="fill:#FF7956;" width="80.157" height="32.063"/>
<path d="M512,128.438H95.186V56.297H0v47.092h80.157v25.049H32.063v63.123h48.094v216.423h37.254
	c-2.971,4.008-4.69,10.224-4.69,16.282c0,17.403,14.159,31.436,31.562,31.436s31.562-13.97,31.562-31.374
	c0-6.058-1.719-12.337-4.69-16.345h58.477c-2.971,4.008-4.69,10.224-4.69,16.282c0,17.403,14.159,31.436,31.562,31.436
	s31.562-13.97,31.562-31.374c0-6.058-1.719-12.337-4.69-16.345h21.221v-15.029H95.186v-33.065h319.281L462.56,191.56H512V128.438z
	 M15.029,88.36V71.327h65.127V88.36H15.029z M160.814,424.016c0,9.116-7.416,16.532-16.532,16.532
	c-9.116,0-16.532-7.417-16.532-16.532c0-9.116,7.416-16.532,16.532-16.532S160.814,414.899,160.814,424.016z M273.033,424.016
	c0,9.116-7.417,16.532-16.532,16.532c-9.116,0-16.532-7.417-16.532-16.532c0-9.116,7.416-16.532,16.532-16.532
	C265.617,407.483,273.033,414.899,273.033,424.016z M200.391,191.562v41.08h-56.11v15.029h56.11v41.08H95.186v-97.19
	L200.391,191.562L200.391,191.562z M320.626,288.751H215.421v-41.08h105.205V288.751z M335.656,247.671h95.243l-11.737,41.08
	h-83.506V247.671z M320.626,303.781v41.08H215.421v-41.08H320.626z M215.421,232.642v-41.08h105.205v41.08H215.421z M95.186,303.781
	h105.205v41.08H95.186V303.781z M403.13,344.861h-67.475v-41.08h79.212L403.13,344.861z M435.193,232.642h-99.537v-41.08H446.93
	L435.193,232.642z M496.971,176.532H47.092v-33.065h449.879V176.532z"/>
<g>
	<rect x="233.205" y="151.986" style="fill:#FFFFFF;" width="15.029" height="15.029"/>
	<rect x="264.767" y="151.986" style="fill:#FFFFFF;" width="15.029" height="15.029"/>
	<rect x="296.83" y="151.986" style="fill:#FFFFFF;" width="15.029" height="15.029"/>
</g>
<g>
</g>
<g>
</g>
<g>
</g>
<g>
</g>
<g>
</g>
<g>
</g>
<g>
</g>
<g>
</g>
<g>
</g>
<g>
</g>
<g>
</g>
<g>
</g>
<g>
</g>
<g>
</g>
<g>
</g>
</svg>
