<?xml version="1.0" ?><!DOCTYPE svg  PUBLIC '-//W3C//DTD SVG 1.1//EN'  'http://www.w3.org/Graphics/SVG/1.1/DTD/svg11.dtd'><svg enable-background="new 0 0 512 512" height="512px" id="Layer_1" version="1.1" viewBox="0 0 512 512" width="512px" xml:space="preserve" xmlns="http://www.w3.org/2000/svg" xmlns:xlink="http://www.w3.org/1999/xlink"><g><rect height="160" width="64" x="288" y="224"/><path d="M480,96H352V32c0-17.688-14.312-32-32-32H192c-17.688,0-32,14.312-32,32v64H32c-17.688,0-32,14.312-32,32v32h32v320   c0,17.688,14.312,32,32,32h384c17.688,0,32-14.312,32-32V160h32v-32C512,110.312,497.688,96,480,96z M224,64h64v32h-64V64z    M416,448H96V160h320V448z"/><rect height="160" width="64" x="160" y="224"/></g></svg>