<?xml version="1.0"?>
<svg xmlns="http://www.w3.org/2000/svg" xmlns:xlink="http://www.w3.org/1999/xlink" version="1.1" id="Layer_1" x="0px" y="0px" viewBox="0 0 328 328" style="enable-background:new 0 0 328 328;" xml:space="preserve" width="512px" height="512px"><g><g id="XMLID_517_">
	<path id="XMLID_518_" d="M223,116.75c-34.488,0-65.145,16.716-84.297,42.469c-7.764-1.628-15.695-2.469-23.703-2.469   c-63.411,0-115,51.589-115,115c0,8.284,6.716,15,15,15h125.596c19.246,24.348,49.031,40,82.404,40c57.897,0,105-47.103,105-105   S280.897,116.75,223,116.75z M31.325,256.75c7.105-39.739,41.924-70,83.675-70c2.966,0,5.914,0.165,8.841,0.467   c-3.779,10.82-5.841,22.44-5.841,34.533c0,12.268,2.122,24.047,6.006,35H31.325z M223,296.75c-41.355,0-75-33.645-75-75   s33.645-75,75-75s75,33.645,75,75S264.355,296.75,223,296.75z" data-original="#000000" class="active-path" data-old_color="#000000" fill="#FFFFFF"/>
	<path id="XMLID_522_" d="M254.819,189.931c-5.857-5.858-15.355-5.858-21.213,0L223,200.537l-10.606-10.606   c-5.857-5.858-15.355-5.858-21.213,0c-5.858,5.858-5.858,15.355,0,21.213l10.606,10.606l-10.606,10.606   c-5.858,5.858-5.858,15.355,0,21.213c2.929,2.929,6.768,4.394,10.606,4.394c3.839,0,7.678-1.464,10.607-4.394L223,242.963   l10.606,10.606c2.929,2.929,6.768,4.394,10.607,4.394c3.839,0,7.678-1.464,10.606-4.394c5.858-5.858,5.858-15.355,0-21.213   l-10.606-10.606l10.606-10.606C260.678,205.286,260.678,195.789,254.819,189.931z" data-original="#000000" class="active-path" data-old_color="#000000" fill="#FFFFFF"/>
	<path id="XMLID_523_" d="M115,126.75c34.602,0,62.752-28.149,62.752-62.749C177.752,29.4,149.602,1.25,115,1.25   c-34.601,0-62.75,28.15-62.75,62.751C52.25,98.601,80.399,126.75,115,126.75z M115,31.25c18.06,0,32.752,14.692,32.752,32.751   c0,18.058-14.692,32.749-32.752,32.749c-18.059,0-32.75-14.691-32.75-32.749C82.25,45.942,96.941,31.25,115,31.25z" data-original="#000000" class="active-path" data-old_color="#000000" fill="#FFFFFF"/>
</g></g> </svg>
