<?xml version="1.0"?>
<svg xmlns="http://www.w3.org/2000/svg" height="512px" viewBox="0 0 512 512" width="512px" class=""><g><path d="m452 159h-51v-159h-290v159h-51c-33.085938 0-60 26.914062-60 60v162c0 33.085938 26.914062 60 60 60h51v71h290v-71h51c33.085938 0 60-26.914062 60-60v-162c0-33.085938-26.914062-60-60-60zm-301-119h210v119h-210zm0 432v-133h210v133zm321-91c0 11.027344-8.972656 20-20 20h-51v-62h31v-40h-352v40h31v62h-51c-11.027344 0-20-8.972656-20-20v-162c0-11.027344 8.972656-20 20-20h392c11.027344 0 20 8.972656 20 20zm-151-301v40h-130v-40zm0 0" data-original="#000000" class="active-path" data-old_color="#8D8A8A" fill="#8D8C8C"/></g> </svg>
