<?xml version="1.0" encoding="iso-8859-1"?>
<!-- Generator: Adobe Illustrator 19.0.0, SVG Export Plug-In . SVG Version: 6.00 Build 0)  -->
<svg version="1.1" id="Capa_1" xmlns="http://www.w3.org/2000/svg" xmlns:xlink="http://www.w3.org/1999/xlink" x="0px" y="0px"
	 viewBox="0 0 512 512" style="enable-background:new 0 0 512 512;" xml:space="preserve">
<g>
	<g>
		<rect x="88.51" y="162.58" width="32.97" height="30"/>
	</g>
</g>
<g>
	<g>
		<rect x="88.51" y="239.51" width="32.97" height="30"/>
	</g>
</g>
<g>
	<g>
		<rect x="154.45" y="316.44" width="133.55" height="30"/>
	</g>
</g>
<g>
	<g>
		<rect x="88.51" y="316.44" width="32.97" height="30"/>
	</g>
</g>
<g>
	<g>
		<rect x="154.45" y="393.37" width="133.55" height="30"/>
	</g>
</g>
<g>
	<g>
		<rect x="88.51" y="393.37" width="32.97" height="30"/>
	</g>
</g>
<g>
	<g>
		<path d="M512,208.264c0-65.903-49.898-120.362-113.897-127.605V0H0v512h429.504V358.256h-30.936v-22.441
			C462.344,328.362,512,274.007,512,208.264z M30,30h338.103v43.953H30V30z M337.631,482H30V103.953h278.729
			c-20.277,14.59-36.142,34.937-45.189,58.628H154.451v30h101.644c-0.629,5.142-0.959,10.374-0.959,15.683
			c0,10.775,1.341,21.241,3.852,31.248H154.451v30h116.253c19.444,35.687,55.323,61.178,97.398,66.251v22.494h-30.471V482z
			 M399.504,388.256V482h-31.401h-0.471v-93.744H399.504z M383.568,306.696c-54.275,0-98.432-44.156-98.432-98.432
			s44.156-98.432,98.432-98.432s98.433,44.157,98.433,98.432C482,262.54,437.844,306.696,383.568,306.696z"/>
	</g>
</g>
<g>
	<g>
		<polygon points="414.085,170.078 375.181,204.351 358.798,191.029 339.871,214.305 375.957,243.649 433.917,192.589 		"/>
	</g>
</g>
<g>
</g>
<g>
</g>
<g>
</g>
<g>
</g>
<g>
</g>
<g>
</g>
<g>
</g>
<g>
</g>
<g>
</g>
<g>
</g>
<g>
</g>
<g>
</g>
<g>
</g>
<g>
</g>
<g>
</g>
</svg>
