<svg height="480pt" viewBox="-116 0 480 480" width="480pt" xmlns="http://www.w3.org/2000/svg"><path d="m240 120c0 66.273438-53.726562 120-120 120s-120-53.726562-120-120 53.726562-120 120-120 120 53.726562 120 120zm0 0" fill="#c6c5ca"/><path d="m104 32h32v64h-32zm0 0" fill="#ef8060"/><path d="m65.664062 50.777344 16.671876 27.78125c-11.265626 10.242187-18.335938 25.015625-18.335938 41.441406 0 30.929688 25.070312 56 56 56s56-25.070312 56-56c0-16.425781-7.070312-31.199219-18.335938-41.441406l16.671876-27.78125c20.496093 16.109375 33.664062 41.125 33.664062 69.222656 0 48.601562-39.398438 88-88 88s-88-39.398438-88-88c0-28.097656 13.167969-53.113281 33.664062-69.222656zm0 0" fill="#ec5166"/><path d="m120 392-16-48v-112c0-8.839844 7.160156-16 16-16s16 7.160156 16 16v96l16-24h16l16 24h16l16 24h16l16 24v48l-32 56h-88l-32-56-8-40 24-16" fill="#e37a5b"/><path d="m216 360-16-24h-16l-16-24h-16l-16 24v-96c0-8.839844-7.160156-16-16-16s-16 7.160156-16 16v104l8 24-2.183594 1.457031 2.183594 6.542969-22.59375 15.054688 6.59375 32.945312 32 56h88l32-56v-40l-16-24zm0 0" fill="#fadbb0"/></svg>