<svg height="496pt" viewBox="-116 0 496 496" width="496pt" xmlns="http://www.w3.org/2000/svg"><path d="m248 128c0 66.273438-53.726562 120-120 120s-120-53.726562-120-120 53.726562-120 120-120 120 53.726562 120 120zm0 0" fill="#c6c5ca"/><path d="m112 40h32v64h-32zm0 0" fill="#ef8060"/><path d="m73.664062 58.777344 16.671876 27.78125c-11.265626 10.242187-18.335938 25.015625-18.335938 41.441406 0 30.929688 25.070312 56 56 56s56-25.070312 56-56c0-16.425781-7.070312-31.199219-18.335938-41.441406l16.671876-27.78125c20.496093 16.109375 33.664062 41.125 33.664062 69.222656 0 48.601562-39.398438 88-88 88s-88-39.398438-88-88c0-28.097656 13.167969-53.113281 33.664062-69.222656zm0 0" fill="#ec5166"/><path d="m128 400-16-48v-112c0-8.839844 7.160156-16 16-16s16 7.160156 16 16v96l16-24h16l16 24h16l16 24h16l16 24v48l-32 56h-88l-32-56-8-40 24-16" fill="#e37a5b"/><path d="m224 384-16-24h-16l-16-24h-16l-16 24v-96c0-8.839844-7.160156-16-16-16s-16 7.160156-16 16v88l8 24-6.542969 4.359375 6.542969 19.640625-19.769531 13.175781 3.769531 18.824219 32 56h88l32-56v-24l-16-24zm0 0" fill="#fadbb0"/><path d="m224 496h-88c-2.863281 0-5.519531-1.535156-6.945312-4.03125l-32-56c-.429688-.746094-.734376-1.5625-.894532-2.402344l-8-40c-.632812-3.175781.710938-6.429687 3.40625-8.222656l18.914063-12.609375-6.066407-18.199219c-.269531-.824218-.414062-1.679687-.414062-2.535156v-112c0-13.230469 10.769531-24 24-24s24 10.769531 24 24v69.574219l1.34375-2.015625c1.488281-2.222656 3.984375-3.558594 6.65625-3.558594h16c2.671875 0 5.167969 1.335938 6.65625 3.558594l13.625 20.441406h11.71875c2.671875 0 5.167969 1.335938 6.65625 3.558594l13.625 20.441406h11.71875c2.671875 0 5.167969 1.335938 6.65625 3.558594l16 24c.871094 1.3125 1.34375 2.867187 1.34375 4.441406v48c0 1.390625-.367188 2.761719-1.054688 3.96875l-32 56c-1.425781 2.496094-4.082031 4.03125-6.945312 4.03125zm-83.359375-16h78.71875l28.640625-50.128906v-43.457032l-12.28125-18.414062h-11.71875c-2.671875 0-5.167969-1.335938-6.65625-3.558594l-13.625-20.441406h-11.71875c-2.671875 0-5.167969-1.335938-6.65625-3.558594l-13.625-20.441406h-7.4375l-13.625 20.441406c-1.953125 2.933594-5.601562 4.238282-8.976562 3.214844s-5.679688-4.136719-5.679688-7.65625v-96c0-4.40625-3.585938-8-8-8s-8 3.59375-8 8v110.703125l15.585938 46.769531-15.171876 5.0625-4.6875-14.0625-10.832031 7.214844 6.699219 33.472656zm0 0"/><path d="m145.054688 254.871094-2.109376-15.855469c55.328126-7.375 97.054688-55.09375 97.054688-111.015625 0-61.761719-50.238281-112-112-112s-112 50.238281-112 112c0 55.921875 41.726562 103.640625 97.054688 111.007812l-2.109376 15.855469c-63.25-8.414062-110.945312-62.960937-110.945312-126.863281 0-70.574219 57.425781-128 128-128s128 57.425781 128 128c0 63.902344-47.695312 118.449219-110.945312 126.871094zm0 0"/><path d="m144 112h-32c-4.425781 0-8-3.585938-8-8v-64c0-4.414062 3.574219-8 8-8h32c4.425781 0 8 3.585938 8 8v64c0 4.414062-3.574219 8-8 8zm-24-16h16v-48h-16zm0 0"/><path d="m154.175781 220.382812-4.359375-15.398437c34.261719-9.679687 58.183594-41.335937 58.183594-76.984375 0-21.632812-8.550781-41.910156-23.742188-56.886719l-8.539062 14.238281c10.417969 11.671876 16.28125 26.878907 16.28125 42.648438 0 35.289062-28.710938 64-64 64s-64-28.710938-64-64c0-15.769531 5.863281-30.976562 16.28125-42.648438l-8.539062-14.238281c-15.191407 14.976563-23.742188 35.253907-23.742188 56.886719 0 35.648438 23.921875 67.304688 58.175781 76.992188l-4.359375 15.398437c-41.105468-11.628906-69.816406-49.621094-69.816406-92.390625 0-29.648438 13.382812-57.167969 36.71875-75.511719 1.808594-1.425781 4.160156-2 6.394531-1.578125 2.261719.417969 4.230469 1.785156 5.414063 3.753906l16.671875 27.785157c1.960937 3.269531 1.34375 7.472656-1.480469 10.03125-9.992188 9.078125-15.71875 22.03125-15.71875 35.519531 0 26.472656 21.527344 48 48 48s48-21.527344 48-48c0-13.488281-5.726562-26.441406-15.71875-35.519531-2.824219-2.570313-3.441406-6.769531-1.480469-10.03125l16.671875-27.785157c1.175782-1.96875 3.152344-3.335937 5.414063-3.753906 2.234375-.421875 4.585937.160156 6.394531 1.578125 23.335938 18.34375 36.71875 45.863281 36.71875 75.511719 0 42.769531-28.710938 80.761719-69.824219 92.382812zm0 0"/></svg>