<svg height="512pt" viewBox="0 0 512 512.00004" width="512pt" xmlns="http://www.w3.org/2000/svg"><path d="m504.5 255.996094c0 137.238281-111.253906 248.496094-248.496094 248.496094-137.238281 0-248.496094-111.257813-248.496094-248.496094 0-137.242188 111.257813-248.496094 248.496094-248.496094 137.242188 0 248.496094 111.253906 248.496094 248.496094zm0 0" fill="#d15573"/><path d="m37.507812 255.996094c0-132.203125 103.242188-240.273438 233.496094-248.03125-4.964844-.296875-9.960937-.464844-15-.464844-137.238281 0-248.496094 111.253906-248.496094 248.496094 0 137.238281 111.257813 248.496094 248.496094 248.496094 5.039063 0 10.035156-.167969 15-.464844-130.253906-7.757813-233.496094-115.828125-233.496094-248.03125zm0 0" fill="#c21d44"/><path d="m277.402344 302.90625h-42.796875c-4.328125-4.328125-6.753907-6.753906-11.082031-11.082031v-188.539063h64.960937v188.539063c-4.328125 4.328125-6.753906 6.753906-11.082031 11.082031zm0 0" fill="#e5ebf5"/><path d="m223.523438 343.75h64.960937v64.957031h-64.960937zm0 0" fill="#e5ebf5"/><path d="m253.523438 291.824219v-188.539063h-30v188.539063c4.328124 4.328125 6.753906 6.753906 11.082031 11.082031h30c-4.328125-4.328125-6.753907-6.753906-11.082031-11.082031zm0 0" fill="#cad8ea"/><path d="m223.523438 343.75h30v64.957031h-30zm0 0" fill="#cad8ea"/><path d="m276.003906 451.207031h-15v-15h15zm-25 0h-15v-15h15zm0 0" fill="#fff"/><path d="m295.984375 226.28125v-130.496094h-79.960937v199.148438l15.476562 15.472656h49.007812l15.476563-15.472656v-41.652344h-15v35.4375l-6.6875 6.6875h-36.582031l-6.691406-6.6875v-177.933594h49.960937v115.496094zm0 0"/><path d="m216.023438 416.207031h79.960937v-79.957031h-79.960937zm15-64.957031h49.960937v49.957031h-49.960937zm0 0"/><path d="m464.796875 169.511719c-23.101563-55.769531-66.535156-99.207031-122.308594-122.308594l-5.738281 13.855469c52.066406 21.570312 92.621094 62.125 114.191406 114.191406zm0 0"/><path d="m437.019531 74.980469c-48.351562-48.351563-112.636719-74.980469-181.015625-74.980469s-132.664062 26.628906-181.015625 74.980469c-97.816406 97.816406-98.757812 252.324219-9.726562 351.730469l11.171875-10.007813c-39.609375-44.226563-61.425782-101.300781-61.425782-160.707031 0-132.886719 108.109376-240.996094 240.996094-240.996094 132.886719 0 240.996094 108.109375 240.996094 240.996094 0 132.886718-108.109375 240.996094-240.996094 240.996094-59.40625 0-116.480468-21.816407-160.707031-61.425782l-10.007813 11.171875c99.507813 89.121094 254.011719 87.992188 351.730469-9.726562 48.351563-48.351563 74.980469-112.636719 74.980469-181.015625s-26.628906-132.664063-74.980469-181.015625zm0 0"/></svg>