<?xml version="1.0" encoding="iso-8859-1"?>
<!-- Generator: Adobe Illustrator 18.1.1, SVG Export Plug-In . SVG Version: 6.00 Build 0)  -->
<svg version="1.1" id="Capa_1" xmlns="http://www.w3.org/2000/svg" xmlns:xlink="http://www.w3.org/1999/xlink" x="0px" y="0px"
	 viewBox="0 0 501.5 501.5" style="enable-background:new 0 0 501.5 501.5;" xml:space="preserve">
<g>
	<g>
		<path d="M17,410.833h86.7l-20.117,59.783c-1.7,5.1-0.85,10.767,2.267,15.3C88.967,490.45,94.067,493,99.733,493h304.3
			c5.667,0,10.767-2.833,13.883-7.367s3.967-10.483,1.983-15.583l-22.383-59.217H484.5c9.35,0,17-7.65,17-17V255
			c0-1.7-0.283-3.4-0.85-4.817l-38.533-127.5c-2.267-7.083-8.783-12.183-16.15-12.183H365.5v-85c0-9.35-7.65-17-17-17H150.167
			c-9.35,0-17,7.65-17,17v85H58.65c-7.367,0-13.883,4.533-16.15,11.617L0.85,245.367C0.283,247.067,0,249.05,0,250.75v143.083
			C0,403.183,7.65,410.833,17,410.833z M123.25,459l40.8-121.833H333.2L379.383,459H123.25z M167.167,42.5H331.5v130.333H167.167
			V42.5z M34,253.583L70.833,144.5h62.333v45.333c0,9.35,7.65,17,17,17H348.5c9.35,0,17-7.65,17-17V144.5h67.717L467.5,257.55
			v119.283h-82.733l-23.8-62.617c-2.55-6.517-8.783-11.05-15.867-11.05H151.867c-7.367,0-13.883,4.533-16.15,11.617l-20.683,62.05
			H34V253.583z"/>
	</g>
</g>
<g>
</g>
<g>
</g>
<g>
</g>
<g>
</g>
<g>
</g>
<g>
</g>
<g>
</g>
<g>
</g>
<g>
</g>
<g>
</g>
<g>
</g>
<g>
</g>
<g>
</g>
<g>
</g>
<g>
</g>
</svg>
