<?xml version="1.0"?>
<svg xmlns="http://www.w3.org/2000/svg" xmlns:xlink="http://www.w3.org/1999/xlink" version="1.1" id="Capa_1" x="0px" y="0px" viewBox="0 0 512 512" style="enable-background:new 0 0 512 512;" xml:space="preserve" width="512px" height="512px" class=""><g><path style="fill:#999999" d="M435.405,75.443C385.875,25.916,320.436,0,254.999,0S124.123,25.916,74.594,75.443  c-99.36,99.358-99.36,261.454,0,360.812C124.424,486.084,189.563,512,254.999,512s130.576-25.916,180.406-75.744  C537.434,334.229,537.434,177.47,435.405,75.443z M256,451.264c-50.127,0-99.961-19.512-138.08-57.335  c-67.54-67.838-76.246-173.2-21.014-251.247L256,301.778l113.166,113.164C334.946,439.256,295.325,451.264,256,451.264z   M415.094,369.016L256,209.922L142.833,96.757C177.053,72.442,216.675,60.434,256,60.434c50.127,0,99.961,19.512,138.08,57.335  C461.619,185.608,470.325,290.97,415.094,369.016z" data-original="#FD4E26" class="active-path" data-old_color="#9A9A9A"/><path style="fill:#999999" d="M256,60.434c50.127,0,99.961,19.512,138.08,57.335c67.54,67.838,76.246,173.201,21.014,251.247  L256,209.922l-1.001-1.001v91.856l1.001,1.001l113.166,113.164c-34.22,24.314-73.841,36.322-113.166,36.322  c-0.333,0-0.667-0.01-1.001-0.012V512c65.436,0,130.576-25.916,180.406-75.744c102.028-102.027,102.028-258.786,0-360.812  C385.875,25.916,320.436,0,254.999,0v60.444C255.332,60.442,255.667,60.434,256,60.434z" data-original="#FD3018" class="" data-old_color="#9E9C9C"/></g> </svg>
