<svg xmlns="http://www.w3.org/2000/svg" xmlns:xlink="http://www.w3.org/1999/xlink" width="96" height="32"><rect id="backgroundrect" width="100%" height="100%" x="0" y="0" fill="none" stroke="none"/>
 <!-- icon name edit-76--> 


 <!-- icon name camera-19--> 


 <!-- icon name shop--> 


 <!-- icon name ui-04--> 


 <!-- icon name trash-simple--> 


 <!-- icon name archive-paper--> 


 <!-- icon name edit-76.active--> 


 <!-- icon name camera-19.active--> 


 <!-- icon name shop.active--> 


 <!-- icon name ui-04.active--> 


 <!-- icon name trash-simple.active--> 


 <!-- icon name archive-paper.active--> 

<g class="currentLayer" style=""><title>Layer 1</title><g id="svg_1"><g class="nc-icon-wrapper" fill="#c3c2b9" id="svg_2"><path data-color="color-2" fill="#c3c2b9" d="M12.7,0.3c-0.4-0.4-1-0.4-1.4,0l-7,7C4.1,7.5,4,7.7,4,8v3c0,0.6,0.4,1,1,1h3 c0.3,0,0.5-0.1,0.7-0.3l7-7c0.4-0.4,0.4-1,0-1.4L12.7,0.3z M7.6,10H6V8.4l6-6L13.6,4L7.6,10z" id="svg_3"/> <path fill="#c3c2b9" d="M15,10c-0.6,0-1,0.4-1,1v3H2V2h3c0.6,0,1-0.4,1-1S5.6,0,5,0H1C0.4,0,0,0.4,0,1v14c0,0.6,0.4,1,1,1h14 c0.6,0,1-0.4,1-1v-4C16,10.4,15.6,10,15,10z" id="svg_4"/></g></g><g id="svg_5"><g class="nc-icon-wrapper" fill="#c3c2b9" id="svg_6"><path fill="#c3c2b9" d="M31,4 h-2.5 l-1.7000000000000002,-2.6 C26.6,1.2 26.3,1 26,1 H22 C21.7,1 21.4,1.2 21.2,1.4 L19.5,4 H17 C16.4,4 16,4.4 16,5 v9 c0,0.6000000000000001 0.4,1 1,1 h14 c0.6000000000000001,0 1,-0.4 1,-1 V5 C32,4.4 31.6,4 31,4 zM24,12 c-1.7000000000000002,0 -3,-1.3 -3,-3 s1.3,-3 3,-3 s3,1.3 3,3 S25.7,12 24,12 z" id="svg_7"/></g></g><g id="svg_8"><g class="nc-icon-wrapper" fill="#c3c2b9" id="svg_9"><path fill="#c3c2b9" d="M45.9,0.5 C45.7,0.2 45.4,0 45,0 H35 C34.6,0 34.3,0.2 34.1,0.5 C32,4.5 32,4.7 32,5 c0,1.1 0.9,2 2,2 v8 c0,0.6000000000000001 0.4,1 1,1 h10 c0.6000000000000001,0 1,-0.4 1,-1 V7 c1.1,0 2,-0.9 2,-2 C48,4.7 48,4.5 45.9,0.5 zM42,14 v-4 H38 v4 H36 V6.7 C36.3,6.9 36.6,7 37,7 c0.6000000000000001,0 1.1,-0.30000000000000004 1.5,-0.7000000000000001 C38.9,6.7 39.4,7 40,7 s1.1,-0.30000000000000004 1.5,-0.7000000000000001 C41.9,6.7 42.4,7 43,7 c0.4,0 0.7000000000000001,-0.1 1,-0.30000000000000004 V14 H42 z" id="svg_10"/></g></g><g id="svg_11"><g class="nc-icon-wrapper" fill="#c3c2b9" id="svg_12"><circle data-color="color-2" fill="#c3c2b9" cx="54" cy="8" r="2" id="svg_13"/> <path fill="#c3c2b9" d="M58,2 H54 C50.7,2 48,4.7 48,8 s2.7,6 6,6 h4 c3.3,0 6,-2.7 6,-6 S61.3,2 58,2 zM58,12 H54 c-2.2,0 -4,-1.8 -4,-4 s1.8,-4 4,-4 h4 c2.2,0 4,1.8 4,4 S60.2,12 58,12 z" id="svg_14"/></g></g><g id="svg_15"><g class="nc-icon-wrapper" fill="#c3c2b9" id="svg_16"><rect data-color="color-2" x="69" y="7" fill="#c3c2b9" width="2" height="6" id="svg_17"/> <rect data-color="color-2" x="73" y="7" fill="#c3c2b9" width="2" height="6" id="svg_18"/> <path fill="#c3c2b9" d="M76,1 c0,-0.6000000000000001 -0.4,-1 -1,-1 H69 C68.4,0 68,0.4 68,1 v2 H64 v2 h1 v10 c0,0.6000000000000001 0.4,1 1,1 h12 c0.6000000000000001,0 1,-0.4 1,-1 V5 h1 V3 h-4 V1 zM70,2 h4 v1 H70 V2 zM77,5 v9 H67 V5 H77 z" id="svg_19"/></g></g><g id="svg_20"><g class="nc-icon-wrapper" fill="#c3c2b9" id="svg_21"><path fill="#c3c2b9" d="M94,0.8 C93.9,0.30000000000000004 93.5,0 93,0 H83 C82.5,0 82.1,0.30000000000000004 82,0.8 c0,0 -2,7.7 -2,8.2 v6 c0,0.6000000000000001 0.4,1 1,1 h14 c0.6000000000000001,0 1,-0.4 1,-1 V9 C96,8.5 94,0.8 94,0.8 zM83.8,2 h8.4 l1.5,6 H91 c-0.6000000000000001,0 -1,0.4 -1,1 v2 H86 V9 c0,-0.6000000000000001 -0.4,-1 -1,-1 H82.3 L83.8,2 z" id="svg_22"/></g></g><g id="svg_23" class="selected" fill="#919191" fill-opacity="1"><g class="nc-icon-wrapper" fill="#919191" id="svg_24" fill-opacity="1"><path data-color="color-2" fill="#919191" d="M12.7,16.3 c-0.4,-0.4 -1,-0.4 -1.4,0 l-7,7 C4.1,23.5 4,23.7 4,24 v3 c0,0.6000000000000001 0.4,1 1,1 h3 c0.30000000000000004,0 0.5,-0.1 0.7000000000000001,-0.30000000000000004 l7,-7 c0.4,-0.4 0.4,-1 0,-1.4 L12.7,16.3 zM7.6,26 H6 V24.4 l6,-6 L13.6,20 L7.6,26 z" id="svg_25" fill-opacity="1"/> <path fill="#919191" d="M15,26 c-0.6000000000000001,0 -1,0.4 -1,1 v3 H2 V18 h3 c0.6000000000000001,0 1,-0.4 1,-1 S5.6,16 5,16 H1 C0.4,16 0,16.4 0,17 v14 c0,0.6000000000000001 0.4,1 1,1 h14 c0.6000000000000001,0 1,-0.4 1,-1 v-4 C16,26.4 15.6,26 15,26 z" id="svg_26" fill-opacity="1"/></g></g><g id="svg_27"><g class="nc-icon-wrapper" fill="#f05451" id="svg_28"><path fill="#f05451" d="M31,20 h-2.5 l-1.7000000000000002,-2.6 C26.6,17.2 26.3,17 26,17 H22 C21.7,17 21.4,17.2 21.2,17.4 L19.5,20 H17 C16.4,20 16,20.4 16,21 v9 c0,0.6000000000000001 0.4,1 1,1 h14 c0.6000000000000001,0 1,-0.4 1,-1 V21 C32,20.4 31.6,20 31,20 zM24,28 c-1.7000000000000002,0 -3,-1.3 -3,-3 s1.3,-3 3,-3 s3,1.3 3,3 S25.7,28 24,28 z" id="svg_29"/></g></g><g id="svg_30"><g class="nc-icon-wrapper" fill="#f05451" id="svg_31"><path fill="#f05451" d="M45.9,16.5 C45.7,16.2 45.4,16 45,16 H35 C34.6,16 34.3,16.2 34.1,16.5 C32,20.5 32,20.7 32,21 c0,1.1 0.9,2 2,2 v8 c0,0.6000000000000001 0.4,1 1,1 h10 c0.6000000000000001,0 1,-0.4 1,-1 V23 c1.1,0 2,-0.9 2,-2 C48,20.7 48,20.5 45.9,16.5 zM42,30 v-4 H38 v4 H36 V22.7 C36.3,22.9 36.6,23 37,23 c0.6000000000000001,0 1.1,-0.30000000000000004 1.5,-0.7000000000000001 C38.9,22.7 39.4,23 40,23 s1.1,-0.30000000000000004 1.5,-0.7000000000000001 C41.9,22.7 42.4,23 43,23 c0.4,0 0.7000000000000001,-0.1 1,-0.30000000000000004 V30 H42 z" id="svg_32"/></g></g><g id="svg_33"><g class="nc-icon-wrapper" fill="#f05451" id="svg_34"><circle data-color="color-2" fill="#f05451" cx="54" cy="24" r="2" id="svg_35"/> <path fill="#f05451" d="M58,18 H54 C50.7,18 48,20.7 48,24 s2.7,6 6,6 h4 c3.3,0 6,-2.7 6,-6 S61.3,18 58,18 zM58,28 H54 c-2.2,0 -4,-1.8 -4,-4 s1.8,-4 4,-4 h4 c2.2,0 4,1.8 4,4 S60.2,28 58,28 z" id="svg_36"/></g></g><g id="svg_37" class="" fill="#919191" fill-opacity="1"><g class="nc-icon-wrapper" fill="#919191" id="svg_38" fill-opacity="1"><rect data-color="color-2" x="69" y="23" fill="#919191" width="2" height="6" id="svg_39" fill-opacity="1"/> <rect data-color="color-2" x="73" y="23" fill="#919191" width="2" height="6" id="svg_40" fill-opacity="1"/> <path fill="#919191" d="M76,17 c0,-0.6000000000000001 -0.4,-1 -1,-1 H69 C68.4,16 68,16.4 68,17 v2 H64 v2 h1 v10 c0,0.6000000000000001 0.4,1 1,1 h12 c0.6000000000000001,0 1,-0.4 1,-1 V21 h1 V19 h-4 V17 zM70,18 h4 v1 H70 V18 zM77,21 v9 H67 V21 H77 z" id="svg_41" fill-opacity="1"/></g></g><g id="svg_42"><g class="nc-icon-wrapper" fill="#f05451" id="svg_43"><path fill="#f05451" d="M94,16.8 C93.9,16.3 93.5,16 93,16 H83 C82.5,16 82.1,16.3 82,16.8 c0,0 -2,7.7 -2,8.2 v6 c0,0.6000000000000001 0.4,1 1,1 h14 c0.6000000000000001,0 1,-0.4 1,-1 V25 C96,24.5 94,16.8 94,16.8 zM83.8,18 h8.4 l1.5,6 H91 c-0.6000000000000001,0 -1,0.4 -1,1 v2 H86 V25 c0,-0.6000000000000001 -0.4,-1 -1,-1 H82.3 L83.8,18 z" id="svg_44"/></g></g></g></svg>