<?xml version="1.0" encoding="iso-8859-1"?>
<!-- Generator: Adobe Illustrator 21.0.0, SVG Export Plug-In . SVG Version: 6.00 Build 0)  -->
<svg xmlns="http://www.w3.org/2000/svg" xmlns:xlink="http://www.w3.org/1999/xlink" version="1.1" id="Capa_1" x="0px" y="0px" viewBox="0 0 512 512" style="enable-background:new 0 0 512 512;" xml:space="preserve" width="512" height="512">
<rect x="10" y="28.648" style="fill-rule:evenodd;clip-rule:evenodd;fill:#ADAAAF;" width="301.435" height="357.283"/>
<rect x="54.392" y="73.04" style="fill-rule:evenodd;clip-rule:evenodd;fill:#D8EC84;" width="212.651" height="212.651"/>
<polygon style="fill-rule:evenodd;clip-rule:evenodd;fill:#E8E7E9;" points="311.435,385.931 134.64,385.931 127.816,415.434   421.5,483.35 502,135.254 311.435,91.185 311.435,136.749 448.747,168.503 400.835,375.686 311.435,355.011 "/>
<polygon style="fill-rule:evenodd;clip-rule:evenodd;fill:#B0E7F8;" points="311.435,136.749 311.435,355.011 400.835,375.686   448.747,168.503 "/>
<g>
	<path style="fill-rule:evenodd;clip-rule:evenodd;" d="M267.043,63.041H54.392c-5.523,0-10,4.477-10,10v212.65   c0,5.523,4.477,10,10,10h212.651c5.523,0,10-4.477,10-10v-66.325c0-5.523-4.477-10-10-10c-5.523,0-10,4.477-10,10v56.325H64.392   V83.041h192.651v56.325c0,5.523,4.477,10,10,10c5.523,0,10-4.477,10-10V73.041C277.043,67.518,272.566,63.041,267.043,63.041z"/>
	<path style="fill-rule:evenodd;clip-rule:evenodd;" d="M510.482,129.959c-1.405-2.25-3.645-3.849-6.229-4.447L321.435,83.234   V28.648c0-5.523-4.477-10-10-10H10c-5.523,0-10,4.477-10,10v357.283c0,5.523,4.477,10,10,10h112.063l-3.989,17.25   c-0.598,2.584-0.145,5.3,1.26,7.549s3.646,3.849,6.229,4.447l293.684,67.916c0.758,0.175,1.516,0.26,2.262,0.259   c4.55,0,8.665-3.126,9.734-7.749l80.5-348.096C512.34,134.923,511.887,132.208,510.482,129.959z M20,38.648h281.435v52.537v45.563   v239.183H20V38.648z M414.01,471.355l-274.198-63.41l2.778-12.013h168.844c5.523,0,10-4.477,10-10v-18.344l77.147,17.841   c0.745,0.172,1.5,0.257,2.253,0.257c1.858,0,3.695-0.518,5.296-1.518c2.25-1.405,3.849-3.646,4.447-6.229l14.941-64.611   c1.245-5.381-2.109-10.751-7.49-11.996c-5.381-1.246-10.752,2.109-11.996,7.49l-12.688,54.868l-71.911-16.63V149.325   l115.317,26.669l-12.689,54.869c-1.245,5.381,2.109,10.752,7.49,11.996c0.758,0.175,1.516,0.259,2.262,0.259   c4.55,0,8.665-3.126,9.734-7.749l14.941-64.611c1.245-5.381-2.109-10.751-7.49-11.996l-129.565-29.963v-25.036l168.569,38.983   L414.01,471.355z"/>
	<path style="fill-rule:evenodd;clip-rule:evenodd;" d="M267.043,169.366c-5.509,0-10.001,4.492-10.001,10   c0,5.508,4.492,10,10.001,10c5.508,0,10-4.492,10-10C277.043,173.858,272.551,169.366,267.043,169.366z"/>
	<path style="fill-rule:evenodd;clip-rule:evenodd;" d="M424.791,262.094c-5.508,0-10,4.492-10,10c0,5.508,4.492,10,10,10   c5.508,0,10-4.492,10-10C434.791,266.586,430.299,262.094,424.791,262.094z"/>
</g>















</svg>
