<svg height="511pt" viewBox="0 -56 511.99987 511" width="511pt" xmlns="http://www.w3.org/2000/svg"><path d="m326.578125 278.632812-81.320313-267.320312c-1.179687-3.871094-3.84375-7.113281-7.410156-9.015625-3.570312-1.90625-7.746094-2.3125-11.617187-1.136719l-215.417969 65.53125c-8.054688 2.449219-12.597656 10.96875-10.148438 19.027344l81.320313 267.320312c1.175781 3.871094 3.84375 7.113282 7.410156 9.015626 2.230469 1.191406 4.699219 1.796874 7.179688 1.796874 1.488281 0 2.984375-.21875 4.4375-.660156l215.414062-65.53125c8.058594-2.449218 12.601563-10.96875 10.152344-19.027344zm0 0" fill="#e3e4e8"/><path d="m10.8125 66.691406c-8.054688 2.449219-12.597656 10.96875-10.148438 19.027344l81.320313 267.320312c1.175781 3.871094 3.84375 7.113282 7.410156 9.015626 2.230469 1.191406 4.699219 1.796874 7.179688 1.796874 1.488281 0 2.984375-.21875 4.4375-.660156l108.582031-33.03125-90.195312-296.5zm0 0" fill="#f9fafa"/><path d="m248.546875 206.921875-37.246094-122.4375c-2.449219-8.058594-10.964843-12.601563-19.027343-10.152344l-112.507813 34.226563c-8.054687 2.449218-12.601563 10.96875-10.152344 19.027344l37.246094 122.433593c1.179687 3.871094 3.84375 7.113281 7.414063 9.015625 2.226562 1.191406 4.695312 1.796875 7.175781 1.796875 1.492187 0 2.984375-.21875 4.4375-.660156l112.511719-34.226563c3.867187-1.175781 7.109374-3.839843 9.015624-7.410156 1.902344-3.566406 2.308594-7.746094 1.132813-11.613281zm0 0" fill="#3a4052"/><path d="m79.765625 108.558594c-8.054687 2.449218-12.601563 10.96875-10.152344 19.027344l37.246094 122.433593c1.179687 3.871094 3.84375 7.113281 7.414063 9.015625 2.226562 1.191406 4.695312 1.796875 7.175781 1.796875 1.492187 0 2.984375-.21875 4.4375-.660156l56.253906-17.113281-46.121094-151.613282zm0 0" fill="#494f60"/><path d="m511.339844 133.640625c-1.175782-3.871094-3.84375-7.113281-7.410156-9.019531l-198.660157-105.984375c-7.429687-3.960938-16.664062-1.152344-20.628906 6.277343l-131.523437 246.527344c-1.90625 3.566406-2.3125 7.746094-1.136719 11.613282 1.179687 3.871093 3.84375 7.113281 7.414062 9.019531l198.65625 105.984375c2.285157 1.21875 4.742188 1.796875 7.164063 1.796875 5.449218 0 10.722656-2.929688 13.464844-8.074219l131.523437-246.527344c1.90625-3.566406 2.3125-7.746094 1.136719-11.613281zm0 0" fill="#e3e4e8"/><path d="m305.269531 18.636719c-7.429687-3.960938-16.664062-1.152344-20.628906 6.277343l-131.523437 246.527344c-1.90625 3.566406-2.3125 7.746094-1.136719 11.613282 1.179687 3.871093 3.84375 7.113281 7.414062 9.019531l99.328125 52.992187 145.878906-273.4375zm0 0" fill="#f9fafa"/><path d="m428.179688 152.351562-103.757813-55.355468c-7.433594-3.960938-16.667969-1.152344-20.632813 6.277344l-60.238281 112.914062c-1.902343 3.566406-2.3125 7.746094-1.132812 11.613281 1.175781 3.871094 3.839843 7.113281 7.410156 9.015625l103.757813 55.355469c2.285156 1.21875 4.742187 1.796875 7.164062 1.796875 5.449219 0 10.722656-2.929688 13.464844-8.070312l60.242187-112.914063c3.960938-7.429687 1.152344-16.667969-6.277343-20.632813zm0 0" fill="#3a4052"/><path d="m324.421875 96.996094c-7.433594-3.960938-16.667969-1.152344-20.632813 6.277344l-60.238281 112.914062c-1.902343 3.566406-2.3125 7.746094-1.132812 11.613281 1.175781 3.871094 3.839843 7.113281 7.410156 9.015625l51.878906 27.679688 74.59375-139.820313zm0 0" fill="#494f60"/></svg>