<svg height="512" viewBox="0 0 58 60" width="512" xmlns="http://www.w3.org/2000/svg"><g id="Page-1" fill="none" fill-rule="evenodd"><g id="068---Profile-Folder" fill-rule="nonzero"><g id="Icons" transform="translate(1 1)"><path id="Shape" d="m43 35.059v10.941c0 1.6568542-1.3431458 3-3 3h-22v-4.42c.0009983-.378673.1084169-.7494404.31-1.07l2.38-3.8c.2027496-.3163382.3103507-.6842646.31-1.06v-24.1c-.0006596-1.0957792-.5987072-2.1040261-1.56-2.63l-19.44-11.92h36c1.6568542 0 3 1.34314575 3 3v22.94c-.0009672.6951815.1818775 1.3782617.53 1.98l2.94 5.16c.3479522.6014448.5307909 1.2841576.53 1.979z" fill="#3f51b5"/><path id="Shape" d="m42.47 33.079-2.94-5.16c-.3481225-.6017383-.5309672-1.2848185-.53-1.98v-22.939c0-1.65685425-1.3431458-3-3-3h-3c1.6568542 0 3 1.34314575 3 3v22.94c-.0009672.6951815.1818775 1.3782617.53 1.98l2.94 5.16c.3481225.6017383.5309672 1.2848185.53 1.98v10.94c0 1.6568542-1.3431458 3-3 3h3c1.6568542 0 3-1.3431458 3-3v-10.941c.0009672-.6951815-.1818775-1.3782617-.53-1.98z" fill="#283593"/><path id="Shape" d="m21 14.549v24.1c.0003507.3757354-.1072504.7436618-.31 1.06l-2.38 3.8c-.2015831.3205596-.3090017.691327-.31 1.07v11.421c-.0003672.6920863-.3585153 1.3347954-.9468854 1.6992185-.5883702.364423-1.3233301.3987601-1.9431146.0907815l-15.11-8.79v-49l19.44 11.92c.9609788.5258017 1.5589753 1.5335793 1.56 2.629z" fill="#02a9f4"/><path id="Shape" d="m19.44 11.919-19.44-11.919v1.84l16.44 10.08c.9609788.5258017 1.5589753 1.5335793 1.56 2.629v24.1c.0003507.3757354-.1072504.7436618-.31 1.06l-2.38 3.8c-.2015831.3205596-.3090017.691327-.31 1.07v11.421c.0025454.5220015-.2020879 1.0236948-.569 1.395l.679.4c.6205814.3083761 1.3565708.2735309 1.9452417-.0920969.588671-.3656277.9461237-1.0099274.9447583-1.7029031v-11.421c.0009983-.378673.1084169-.7494404.31-1.07l2.38-3.8c.2027496-.3163382.3103507-.6842646.31-1.06v-24.1c-.0006596-1.0957792-.5987072-2.1040261-1.56-2.63z" fill="#0377bc"/><path id="Shape" d="m4 11c-.55228475 0-1-.4477153-1-1v-2c0-.55228475.44771525-1 1-1s1 .44771525 1 1v2c0 .5522847-.44771525 1-1 1z" fill="#f5f5f5"/><path id="Shape" d="m4 34c-.55228475 0-1-.4477153-1-1v-18c0-.5522847.44771525-1 1-1s1 .4477153 1 1v18c0 .5522847-.44771525 1-1 1z" fill="#f5f5f5"/><path id="Shape" d="m54.063 32c0 1.6568542-1.3431458 3-3 3-.1882886.0003363-.3760566-.0197817-.56-.06-.9467521 2.9442877-3.1687681 5.3058682-6.05 6.43-2.181952.8399727-4.598048.8399727-6.78 0-2.8812319-1.1241318-5.1032479-3.4857123-6.05-6.43-.1839434.0402183-.3717114.0603363-.56.06-1.6568542 0-3-1.3431458-3-3s1.3431458-3 3-3v-4.15c.5829324.5133928 1.2630514.9044613 2 1.15 0 0 5.17 1.67 8.42-.42s8.93-1.22 10.24.86c-.1466927.8705722-.3674956 1.7270199-.66 2.56.7956495 0 1.5587112.3160705 2.1213203.8786797.5626092.5626091.8786797 1.3256708.8786797 2.1213203z" fill="#ffe0b2"/><path id="Shape" d="m51.063 29c.2925044-.8329801.5133073-1.6894278.66-2.56-.943-1.5-4.15-2.356-7.086-1.946 1.86.254 3.465.96 4.086 1.946-.1466927.8705722-.3674956 1.7270199-.66 2.56 1.6568542 0 3 1.3431458 3 3s-1.3431458 3-3 3c-.1882886.0003363-.3760566-.0197817-.56-.06-.9467521 2.9442877-3.1687681 5.3058682-6.05 6.43-.6107945.232261-1.2442571.3998437-1.89.5 1.6453034.2761549 3.3346328.1034219 4.89-.5 2.8812319-1.1241318 5.1032479-3.4857123 6.05-6.43.1839434.0402183.3717114.0603363.56.06 1.6568542 0 3-1.3431458 3-3s-1.3431458-3-3-3z" fill="#dfc49c"/><path id="Shape" d="m51.723 26.44c-1.31-2.08-6.99-2.94-10.24-.86s-8.42.42-8.42.42c-.7369486-.2455387-1.4170676-.6366072-2-1.15-3.76-3.28-3-10.85-3-10.85 3 6 16 1 21 4 3.18 1.91 3.12 5.83 2.66 8.44z" fill="#ffdc00"/><path id="Shape" d="m49.063 18c-1.745-1.047-4.465-1.119-7.393-1.025 1.5252308-.0145466 3.0317026.3369521 4.393 1.025 2.548 1.53 3.014 4.35 2.863 6.753 1.1027762.2153106 2.0942726.8126872 2.8 1.687.457-2.61.517-6.53-2.663-8.44z" fill="#fec108"/><path id="Shape" d="m46.063 48c0 2.7614237-2.2385763 5-5 5s-5-2.2385763-5-5c2.69-2.02 2.22-4.93 1.61-6.63 2.181952.8399727 4.598048.8399727 6.78 0-.61 1.7-1.08 4.61 1.61 6.63z" fill="#ffe0b2"/><path id="Shape" d="m38.063 42c.5025912-.0021645 1.0041992-.044634 1.5-.127-.6457429-.1001563-1.2792055-.267739-1.89-.5.069.192.135.4.2.621.061-.002.127.006.19.006z" fill="#dfc49c"/><path id="Shape" d="m44.453 41.37c-1.022231.3922355-2.1052583.6024105-3.2.621-.7806038 2.1831699-.046541 4.6201772 1.81 6.009-.0056526 2.1761534-1.4225411 4.0970494-3.5 4.745.4838155.1620147.9898258.2480365 1.5.255 1.3260824 0 2.597852-.5267842 3.5355339-1.4644661s1.4644661-2.2094515 1.4644661-3.5355339c-2.69-2.02-2.22-4.93-1.61-6.63z" fill="#dfc49c"/><path id="Shape" d="m56 56v-1c0-3.8659932-3.1340068-7-7-7h-3c0 2.7614237-2.2385763 5-5 5s-5-2.2385763-5-5h-3c-3.8659932 0-7 3.1340068-7 7v1c0 1.1045695.8954305 2 2 2h26c1.1045695 0 2-.8954305 2-2z" fill="#009688"/><g fill="#00695c"><path id="Shape" d="m38 53c.5100781-.007121 1.0160138-.0927928 1.5-.254-2.0776147-.648336-3.4944634-2.5695828-3.5-4.746h-3c0 1.3260824.5267842 2.597852 1.4644661 3.5355339s2.2094515 1.4644661 3.5355339 1.4644661z"/><path id="Shape" d="m49 48h-3c3.8659932 0 7 3.1340068 7 7v1c0 1.1045695-.8954305 2-2 2h3c1.1045695 0 2-.8954305 2-2v-1c0-3.8659932-3.1340068-7-7-7z"/></g></g><g id="Layer_2" fill="#000"><path id="Shape" d="m26 57c0 1.6568542 1.3431458 3 3 3h26c1.6568542 0 3-1.3431458 3-3v-1c-.0049599-4.4162219-3.5837781-7.9950401-8-8h-2.619c-1.3827118-1.2161092-1.8549786-3.1683587-1.181-4.882 2.6958655-1.1876747 4.8194733-3.3837924 5.916-6.118 1.9328738-.0568229 3.5483473-1.4881956 3.8374888-3.4001651.2891414-1.9119694-.8308486-3.7570181-2.6604888-4.3828349.681-2.491 1.708-8.381-2.778-11.072-2.309-1.384-5.8-1.264-9.515-1.106v-13.039c0-2.209139-1.790861-4-4-4h-36c-.55228475 0-1 .44771525-1 1v49c.00072257.3565418.19122471.6857295.5.864l15.161 8.817c.9293794.4635481 2.0324014.4134357 2.9159191-.132476.8835176-.5459117 1.4218349-1.509957 1.4230809-2.548524v-6h7.765c-1.1427499 1.4158177-1.7656986 3.180545-1.765 5zm30-1v1c0 .5522847-.4477153 1-1 1h-3v-2c0-.5522847-.4477153-1-1-1s-1 .4477153-1 1v2h-16v-2c0-.5522847-.4477153-1-1-1s-1 .4477153-1 1v2h-3c-.5522847 0-1-.4477153-1-1v-1c.0033074-3.3123376 2.6876624-5.9966926 6-6h2.083c.4856527 2.8893814 2.9870881 5.0054594 5.917 5.0054594s5.4313473-2.116078 5.917-5.0054594h2.083c3.3123376.0033074 5.9966926 2.6876624 6 6zm-10.042-6.589c-.1997614 2.0362778-1.9119472 3.5887153-3.958 3.5887153s-3.7582386-1.5524375-3.958-3.5887153c1.5779792-1.4058655 2.311292-3.5311846 1.936-5.611 1.3342795.2719944 2.7097205.2719944 4.044 0-.375292 2.0798154.3580208 4.2051345 1.936 5.611zm3.527-29.554c4.222 2.534 1.605 9.72 1.578 9.793-.1147341.3070775-.0716779.6508892.1152372.9201906.1869151.2693013.4939512.4298915.8217628.4298094 1.1045695 0 1.9999999.8954305 1.9999999 2s-.8954304 2-1.9999999 2c-.1149198.0005195-.2295676-.0112134-.342-.035-.500997-.1118544-1.0053152.1737964-1.167.661-1.0984742 3.7759651-4.5584998 6.3728648-8.491 6.3728648s-7.3925258-2.5968997-8.491-6.3728648c-.1352616-.408984-.5172295-.6853869-.948-.686-.0737167-.000085-.147199.0083034-.219.025-.1124324.0237866-.2270802.0355195-.342.035-1.1045695 0-2-.8954305-2-2s.8954305-2 2-2c.5522847 0 1-.4477153 1-1v-2.318c.2233959.1000788.4516844.1888576.684.266.5246705.174522 1.091478-.1093295 1.266-.634.1745219-.5246705-.1093295-1.091478-.634-1.266-.5903535-.1966145-1.1370734-.5056302-1.61-.91-.0306924-.0316016-.0641601-.0603838-.1-.086-2.012-1.809-2.539-5.154-2.644-7.465 2.623 1.808 6.8 1.629 10.879 1.454 3.345-.141 6.802-.29 8.644.816zm-31.485 37.143c.0029256.3476109-.1775933.6710247-.475.851-.2731117.1792413-.6186807.207128-.917.074l-14.608-8.5v-46.64l17.963 11.015c.6380308.3505171 1.0352181 1.0200286 1.037 1.748v24.1c.000265.1885374-.0527745.3733089-.153.533l-2.388 3.8c-.3004071.4795623-.4594948 1.0341164-.459 1.6zm2-11.421c-.0000766-.1881975.0529555-.3725967.153-.532l2.388-3.8c.3003143-.4784977.4594181-1.0320677.459-1.597v-24.1c.0038951-1.4434527-.7740508-2.7758715-2.033-3.482l-16.421-10.068h32.454c1.1045695 0 2 .8954305 2 2v13.116c-4.027.132-7.84-.03-9.1-2.563-.1987834-.3986939-.6373345-.6178076-1.0755122-.5373591s-.7702935.441055-.8144878.8843591c-.037.37-.716 7.717 3 11.4v2.827c-1.9305942.4947829-3.2024264 2.3352895-2.9825309 4.3161101.2198955 1.9808205 1.8644251 3.497575 3.8565309 3.5568899 1.0962882 2.7341264 3.2200137 4.9300068 5.916 6.117.6741416 1.7139446.2018815 3.666566-1.181 4.883h-2.619c-1.3521422-.0011571-2.6821743.3430541-3.864 1h-10.136z"/></g></g></g></svg>